<?xml version="1.0" encoding="UTF-8" standalone="no"?>
<!-- Created with Inkscape (http://www.inkscape.org/) -->

<svg
   width="500"
   height="500"
   viewBox="0 0 132.29166 132.29167"
   version="1.1"
   id="svg5"
   inkscape:version="1.1.2 (b8e25be833, 2022-02-05)"
   sodipodi:docname="grades-square.svg"
   inkscape:export-filename="D:\Projects\Grades Webapp\img\Grades-square-sm.png"
   inkscape:export-xdpi="150"
   inkscape:export-ydpi="150"
   xmlns:inkscape="http://www.inkscape.org/namespaces/inkscape"
   xmlns:sodipodi="http://sodipodi.sourceforge.net/DTD/sodipodi-0.dtd"
   xmlns="http://www.w3.org/2000/svg"
   xmlns:svg="http://www.w3.org/2000/svg">
  <sodipodi:namedview
     id="namedview7"
     pagecolor="#ffffff"
     bordercolor="#666666"
     borderopacity="1.0"
     inkscape:pageshadow="2"
     inkscape:pageopacity="0.0"
     inkscape:pagecheckerboard="0"
     inkscape:document-units="mm"
     showgrid="false"
     units="px"
     width="500px"
     inkscape:zoom="0.90509668"
     inkscape:cx="327.58931"
     inkscape:cy="330.35145"
     inkscape:window-width="1920"
     inkscape:window-height="1017"
     inkscape:window-x="-8"
     inkscape:window-y="-8"
     inkscape:window-maximized="1"
     inkscape:current-layer="layer1"
     inkscape:snap-text-baseline="false"
     inkscape:snap-page="true"
     inkscape:snap-global="false" />
  <defs
     id="defs2" />
  <g
     inkscape:label="Layer 1"
     inkscape:groupmode="layer"
     id="layer1">
    <rect
       style="fill:#ffffff;stroke-width:0.1"
       id="rect844"
       width="132.29167"
       height="132.29167"
       x="0"
       y="0" />
    <path
       style="fill:#0d6efd;stroke-width:0.185242;fill-opacity:1"
       d="m 101.24978,79.348268 c -0.40754,-0.07508 -1.31305,-0.234474 -2.012252,-0.354186 -1.716821,-0.293968 -2.403502,-0.683468 -3.837386,-2.176663 -2.121773,-2.209549 -2.914557,-4.088128 -3.081994,-7.3031 -0.123794,-2.377101 0.139488,-4.056256 0.912026,-5.816403 1.086628,-2.475773 2.490034,-3.924063 4.499993,-4.643876 1.426617,-0.510903 6.369633,-0.465883 8.142723,0.07413 2.74372,0.835683 4.62017,3.748209 5.0924,7.904201 0.27953,2.460018 0.54657,2.310106 -4.11844,2.312013 -2.16144,8.74e-4 -4.36752,0.05417 -4.90241,0.118426 -0.95916,0.115215 -0.97252,0.125452 -0.97252,0.745315 0,1.99994 1.8464,3.397042 4.16796,3.153703 0.50941,-0.05338 1.74937,-0.326507 2.75543,-0.606909 1.33385,-0.371769 1.91076,-0.458411 2.13029,-0.319933 0.37643,0.237431 0.99576,4.229644 0.73436,4.733693 -0.38432,0.741053 -3.17729,1.733986 -5.89557,2.095919 -2.1128,0.28132 -2.49384,0.290135 -3.61461,0.08366 z m 2.30507,-14.497595 c -0.006,-0.433005 -0.10996,-1.079041 -0.23154,-1.435634 -0.18434,-0.540556 -0.31018,-0.648348 -0.75683,-0.648348 -0.70893,0 -1.15596,0.65015 -1.30556,1.898734 l -0.11652,0.972526 h 1.21045 1.21046 l -0.0103,-0.787278 z M 49.381809,79.097594 c -2.279565,-0.754163 -3.229619,-1.970071 -3.649479,-4.670709 -0.299459,-1.926205 -0.03779,-3.131112 0.969787,-4.465639 1.611849,-2.13488 2.844883,-2.622022 7.048276,-2.784585 2.876735,-0.111261 2.886365,-0.113074 2.806152,-0.532674 -0.04426,-0.231579 -0.287372,-0.615187 -0.540236,-0.852471 -0.450813,-0.423045 -0.537525,-0.431753 -4.460527,-0.448128 -3.757511,-0.01571 -4.009213,-0.03824 -4.1395,-0.370482 -0.07629,-0.194584 -0.14458,-1.360853 -0.151744,-2.591715 -0.01519,-2.610708 -0.13752,-2.453581 2.302513,-2.957115 3.257028,-0.672123 9.327897,-0.505082 11.525462,0.317132 1.41373,0.52895 3.006549,2.094168 3.455832,3.395966 0.452483,1.311063 0.67585,4.445825 0.706279,9.912111 0.01835,3.292834 -0.0392,4.847751 -0.189847,5.129205 -0.296873,0.554713 -1.133181,0.650184 -5.069037,0.578665 -2.268767,-0.04122 -3.348988,-0.129457 -3.50551,-0.286309 -0.124416,-0.124693 -0.232583,-0.51163 -0.240339,-0.859855 l -0.01416,-0.633148 -0.768869,0.707773 c -1.248101,1.148922 -2.170717,1.530676 -3.862202,1.598074 -0.892778,0.03553 -1.776524,-0.03843 -2.222913,-0.186096 z m 6.448955,-5.571039 c 0.892312,-0.826959 0.90375,-2.452496 0.02267,-3.217948 -0.578566,-0.502623 -1.08161,-0.418967 -1.721083,0.286221 -0.381742,0.42098 -0.42711,0.625077 -0.362941,1.632835 0.04034,0.633451 0.184346,1.285485 0.320027,1.448971 0.360541,0.434423 1.187572,0.363143 1.741348,-0.150087 z m 16.674688,5.472523 c -2.445239,-0.909356 -4.222625,-2.966555 -4.98784,-5.77308 -0.425016,-1.558788 -0.482222,-6.479427 -0.09146,-7.865912 0.660723,-2.344281 2.303114,-4.560429 4.121923,-5.561869 0.907061,-0.49943 1.171246,-0.550363 3.185967,-0.614287 2.384196,-0.07561 4.038455,0.159633 5.165604,0.734659 0.537647,0.27429 0.723462,0.302821 0.790464,0.121394 0.04811,-0.130458 0.109052,-1.779327 0.135293,-3.664173 l 0.0477,-3.426999 0.926221,-0.09261 c 1.671166,-0.167108 8.392895,0.07421 8.627757,0.309736 0.164467,0.16495 0.172808,3.178862 0.03475,12.542893 -0.166366,11.281898 -0.209454,12.368045 -0.508698,12.824757 L 89.626199,79.032552 85.486634,78.92079 C 80.55695,78.787686 80.247,78.692867 80.215871,77.308245 80.202059,76.68751 80.193482,76.679625 80.017166,77.123 c -0.264885,0.666253 -1.079539,1.467094 -1.830063,1.799054 -0.410169,0.181422 -1.396934,0.313675 -2.686021,0.360017 -1.680505,0.06039 -2.205577,0.01087 -2.995585,-0.282993 z m 7.19299,-6.520943 c 0.482361,-0.929501 0.800554,-4.151387 0.550284,-5.572152 -0.341026,-1.936062 -1.357859,-3.109052 -2.107252,-2.430861 -0.694854,0.628841 -0.934393,2.129131 -0.834591,5.227163 0.05103,1.585253 0.15202,3.023277 0.224313,3.195612 0.3119,0.743434 1.70347,0.473912 2.167246,-0.419762 z m -69.10207,6.401562 C 7.0286143,77.879736 4.728544,75.407594 3.7053023,71.473097 3.2261019,69.630513 3.1218542,65.713975 3.5105434,64.15601 4.1160229,61.729073 6.0693743,59.03834 8.1379823,57.781721 10.502279,56.345492 14.252712,55.541112 17.89054,55.690037 c 2.223248,0.09103 6.111955,0.5931 6.903612,0.891345 0.614334,0.231436 0.784833,0.886452 0.833265,3.201215 0.03524,1.683818 -0.01519,2.15991 -0.27027,2.550783 l -0.313586,0.480576 -1.909326,-0.357712 C 21.76591,62.1999 20.621293,62.114466 19.094614,62.15475 c -1.944726,0.05129 -2.206963,0.101283 -3.010508,0.573617 -1.469497,0.863803 -1.713181,1.541151 -1.713181,4.762013 0,2.857504 0.187584,3.813856 0.90272,4.602361 0.902993,0.995629 2.36685,1.270579 3.004979,0.56441 0.315336,-0.348955 0.352886,-0.698835 0.352886,-3.288058 v -2.897551 l 3.890097,-0.04551 c 2.185279,-0.02555 4.00873,0.03047 4.160797,0.127748 0.208009,0.133151 0.286393,0.722839 0.338468,2.546311 0.0652,2.282626 -0.2009,9.065741 -0.361948,9.226788 -0.043,0.04297 -1.700048,0.08953 -3.682319,0.103355 l -3.604123,0.02519 -0.30603,-1.175608 c -0.168317,-0.646576 -0.314194,-1.044724 -0.324174,-0.884769 -0.03511,0.562589 -1.293184,1.784489 -2.279313,2.213783 -1.271346,0.553445 -4.351122,0.695677 -5.866593,0.270916 z m 21.372617,-0.01312 c -0.305651,-0.04358 -0.889167,-0.122759 -1.296701,-0.175864 -1.274262,-0.166091 -1.244351,-0.08829 -1.504765,-3.913693 -0.255643,-3.755279 -0.337124,-14.280767 -0.113265,-14.632073 0.182071,-0.285733 0.620986,-0.310044 5.00817,-0.277461 l 3.760618,0.02792 0.268413,0.642404 c 0.147618,0.353322 0.26841,1.073186 0.26841,1.599711 v 0.957304 l 0.950446,-0.965556 c 1.521712,-1.545897 2.696414,-2.231082 4.232813,-2.468888 1.113128,-0.172288 1.354962,-0.16243 1.496376,0.0611 0.222066,0.350969 0.211266,4.339777 -0.01657,6.095001 -0.241441,1.860587 -0.35732,1.956393 -2.025899,1.67495 -2.207649,-0.372366 -3.678735,0.07047 -4.452988,1.340286 -0.341007,0.559298 -0.368149,0.940345 -0.368791,5.177552 -3.69e-4,2.515609 -0.07053,4.616996 -0.155922,4.669767 -0.208063,0.128594 -5.347052,0.287896 -6.0504,0.187556 z M 114.9135,78.525006 c -0.83939,-0.225468 -1.57177,-0.455539 -1.62751,-0.511271 -0.20066,-0.200668 -0.84435,-4.469149 -0.69628,-4.617228 0.0834,-0.0834 0.67858,0.01243 1.32264,0.21287 1.26997,0.395256 3.56074,0.490606 4.37246,0.181998 1.0392,-0.395111 0.74204,-1.390451 -0.6192,-2.074007 -0.4705,-0.236249 -0.92211,-0.533752 -1.00358,-0.661106 -0.0815,-0.127351 -0.38724,-0.355211 -0.67949,-0.506333 -0.29226,-0.151123 -0.9835,-0.726927 -1.53613,-1.27956 -0.81639,-0.816385 -1.06903,-1.225077 -1.34737,-2.179689 -0.51887,-1.779475 -0.45471,-3.196481 0.19913,-4.397807 1.19737,-2.199948 3.64072,-3.356039 7.86521,-3.721489 2.31416,-0.200193 5.14426,-0.212726 6.00716,-0.0266 0.65084,0.140403 0.74069,0.409088 0.91533,2.7368 l 0.12706,1.693582 -0.59236,0.206502 c -0.3258,0.113576 -1.30701,0.26143 -2.18048,0.328572 -1.40194,0.107775 -1.648,0.181947 -2.0988,0.63276 -0.82274,0.822732 -0.73304,0.962531 1.28899,2.009059 1.97272,1.021008 2.98879,1.933409 3.76348,3.379616 0.54276,1.013169 0.62695,1.34558 0.62499,2.467602 -0.004,1.640369 -0.37406,2.45133 -1.73917,3.799587 -1.23863,1.223329 -3.2075,2.298685 -4.71455,2.575 -1.9149,0.351088 -5.90052,0.221471 -7.65149,-0.248851 z"
       id="path836"
       sodipodi:nodetypes="sssssscssssssssssscsssccccccsssssssssssssssccscccssssssssssscscscsssscsccssssssscsscssssssccscssssscscssccsssccccssscsscssscssssccsssssssssssssscssssscssss" />
  </g>
</svg>
