<?xml version="1.0" encoding="UTF-8" standalone="no"?>
<!-- Created with Inkscape (http://www.inkscape.org/) -->

<svg
   width="132.02402mm"
   height="132.02402mm"
   viewBox="0 0 132.02402 132.02402"
   version="1.1"
   id="svg5"
   inkscape:version="1.1.2 (b8e25be833, 2022-02-05)"
   sodipodi:docname="questions-square.svg"
   xmlns:inkscape="http://www.inkscape.org/namespaces/inkscape"
   xmlns:sodipodi="http://sodipodi.sourceforge.net/DTD/sodipodi-0.dtd"
   xmlns="http://www.w3.org/2000/svg"
   xmlns:svg="http://www.w3.org/2000/svg">
  <sodipodi:namedview
     id="namedview7"
     pagecolor="#ffffff"
     bordercolor="#666666"
     borderopacity="1.0"
     inkscape:pageshadow="2"
     inkscape:pageopacity="0.0"
     inkscape:pagecheckerboard="0"
     inkscape:document-units="mm"
     showgrid="false"
     inkscape:zoom="1.0469406"
     inkscape:cx="182.91391"
     inkscape:cy="283.68371"
     inkscape:window-width="1920"
     inkscape:window-height="1017"
     inkscape:window-x="-8"
     inkscape:window-y="-8"
     inkscape:window-maximized="1"
     inkscape:current-layer="layer1" />
  <defs
     id="defs2" />
  <g
     inkscape:label="Layer 1"
     inkscape:groupmode="layer"
     id="layer1"
     transform="translate(-33.265009,-131.42222)">
    <path
       style="fill:#dc3545;fill-opacity:1;stroke-width:0.264583"
       d="m 42.38634,208.90456 c -0.678425,-1.05841 -1.295294,-2.08542 -1.37082,-2.28224 -0.07596,-0.19795 -0.516991,-0.35785 -0.987033,-0.35785 -1.685362,0 -3.671168,-0.8037 -4.817029,-1.94956 -1.418225,-1.41823 -1.950618,-3.15967 -1.946421,-6.36669 0.0089,-6.81029 2.743036,-9.49581 9.654152,-9.48255 2.09927,0.004 2.96868,0.1284 4.208687,0.6021 2.031524,0.77606 3.613908,2.35012 4.355734,4.33283 0.937272,2.50508 0.689919,7.07337 -0.51164,9.44934 -0.447484,0.88485 -2.143371,2.61566 -2.571883,2.62483 -0.104077,0.002 -0.354493,0.10871 -0.55648,0.23662 -0.294912,0.18677 -0.197001,0.46964 0.49709,1.43614 0.475386,0.66197 0.803384,1.36242 0.728885,1.55656 -0.210524,0.54862 -2.838277,1.76888 -4.212568,1.95621 l -1.237176,0.16864 z m 1.362471,-5.6715 c 0.910341,-0.63763 1.218056,-2.37762 1.108386,-6.26744 -0.120986,-4.29117 -0.475907,-5.25324 -1.938008,-5.25324 -1.519496,0 -1.828387,0.93479 -1.836013,5.55625 -0.0066,3.99832 0.288089,5.58513 1.128254,6.07534 0.611587,0.35684 0.899198,0.33609 1.537381,-0.11091 z m 13.105804,3.02927 c -1.172356,-0.27185 -2.372599,-1.4626 -2.700065,-2.67872 -0.150969,-0.56065 -0.234782,-3.47766 -0.194218,-6.75948 l 0.07136,-5.7732 h 2.671472 c 3.817398,0 3.61637,-0.33689 3.463909,5.80487 -0.071,2.86033 -0.019,5.24345 0.120171,5.50606 0.304226,0.57412 1.623288,0.61504 2.080162,0.0645 0.249055,-0.3001 0.302215,-1.69709 0.215286,-5.65768 l -0.115429,-5.2592 1.338466,-0.16085 c 0.736155,-0.0885 2.199399,-0.16189 3.251652,-0.16315 1.847864,-0.002 1.919174,0.0215 2.088478,0.69611 0.265351,1.05724 -0.06196,13.3271 -0.363566,13.6287 -0.330981,0.33098 -4.014013,0.61859 -4.941269,0.38586 -0.403058,-0.10116 -0.805397,-0.45308 -0.9486,-0.82974 -0.278603,-0.73278 -0.659516,-0.84901 -0.882033,-0.26914 -0.376947,0.9823 -3.459779,1.8583 -5.155773,1.46502 z m 67.237825,-0.0109 c -1.4663,-0.28965 -2.16222,-0.66384 -3.12126,-1.67828 -1.99881,-2.11428 -2.65251,-6.1967 -1.47623,-9.21918 0.47595,-1.22295 1.88891,-2.83476 3.11881,-3.5577 1.17303,-0.68951 1.47585,-0.74529 4.04605,-0.74529 2.36457,0 2.96205,0.0906 4.01365,0.60863 3.13875,1.54617 4.65463,6.01865 3.41888,10.08709 -0.75563,2.48777 -1.92152,3.81042 -3.85398,4.3722 -1.49837,0.43559 -4.30532,0.49612 -6.14592,0.13253 z m 4.04188,-3.56417 c 0.61894,-1.48133 0.7296,-3.0709 0.38353,-5.5089 -0.33951,-2.39173 -0.49404,-2.66689 -1.66245,-2.96014 -0.65174,-0.16358 -0.76869,-0.084 -1.123,0.76398 -0.69911,1.67319 -0.3757,6.90558 0.516,8.34838 0.0979,0.15846 0.47476,0.28811 0.8374,0.28811 0.50417,0 0.75093,-0.21921 1.04852,-0.93143 z m -51.541326,3.16281 c -2.002121,-0.3867 -3.188931,-1.14999 -4.315304,-2.77534 -0.832258,-1.20095 -1.444959,-3.28284 -1.444959,-4.90979 0,-1.60195 0.918708,-4.31833 1.835068,-5.42582 1.283425,-1.55111 2.353578,-1.91232 5.717062,-1.9297 3.251925,-0.0168 3.781488,0.20206 5.067281,2.09427 0.710293,1.04529 1.475984,3.77856 1.354312,4.83447 l -0.0831,0.72115 -3.770313,0.0734 -3.770313,0.0734 v 0.67159 c 0,0.95367 0.425107,1.62773 1.31762,2.08927 0.996342,0.51523 2.016313,0.50477 3.978603,-0.0408 0.871239,-0.24222 1.645754,-0.37872 1.721147,-0.30333 0.07539,0.0754 0.164436,0.95819 0.197874,1.96176 l 0.0608,1.82469 -1.719791,0.56238 c -2.315954,0.75733 -4.016481,0.88969 -6.145988,0.47838 z m 2.970988,-10.68083 c 0,-0.94803 -0.502397,-1.86931 -1.019387,-1.86931 -0.655497,0 -1.002615,0.45901 -1.150506,1.52136 -0.119179,0.85609 -0.114644,0.85989 1.025091,0.85989 0.955574,0 1.144802,-0.0846 1.144802,-0.51194 z m 9.657291,10.95635 c -0.14552,-0.0534 -0.761616,-0.2248 -1.369099,-0.38081 -0.92473,-0.23748 -1.129298,-0.41207 -1.256771,-1.07258 -0.08374,-0.43391 -0.216988,-1.12673 -0.296106,-1.5396 l -0.143851,-0.75066 2.126427,0.1231 c 3.227323,0.18682 3.742313,-0.67987 1.27617,-2.1477 -2.183609,-1.29967 -3.114895,-2.73074 -3.114895,-4.78654 0,-1.48006 0.841116,-2.72113 2.38125,-3.51354 1.323094,-0.68075 4.868998,-1.21864 7.169928,-1.08764 l 1.42903,0.0814 0.17104,1.5875 c 0.10835,1.0057 0.0692,1.65091 -0.1068,1.76053 -0.15281,0.0952 -0.91446,0.25257 -1.69255,0.34978 -1.32138,0.1651 -2.20815,0.65122 -2.20815,1.2105 0,0.13217 0.50602,0.4964 1.12448,0.8094 1.8305,0.92641 2.56105,1.54287 3.11485,2.6284 0.6204,1.21609 0.67227,2.63664 0.13426,3.67703 -0.54792,1.05957 -2.31768,2.3871 -3.76164,2.82166 -1.09877,0.33069 -4.3003,0.4785 -4.977573,0.22981 z m 15.478117,-0.10878 c -2.10859,-0.42547 -3.47781,-1.63325 -3.98441,-3.51461 -0.15512,-0.57607 -0.24482,-2.28216 -0.19933,-3.7913 l 0.0827,-2.74388 -0.661454,-0.0768 c -0.64256,-0.0746 -0.66364,-0.14289 -0.7379,-2.39188 -0.0758,-2.29429 -0.0707,-2.3151 0.56445,-2.3151 0.743404,0 0.958114,-0.54534 0.963584,-2.4474 l 0.004,-1.25677 h 2.90538 c 2.88236,0 2.9067,0.005 3.07224,0.66485 0.0918,0.36566 0.0868,1.1991 -0.0112,1.85208 -0.17495,1.16665 -0.16513,1.18731 0.56578,1.19129 1.30449,0.007 1.43599,0.2536 1.35104,2.53246 l -0.0781,2.0937 -0.99219,0.0821 -0.99218,0.0821 v 2.447 c 0,2.73058 0.22885,3.26395 1.4552,3.39158 0.79319,0.0825 0.79381,0.084 0.87153,2.00296 0.0752,1.85704 0.055,1.92901 -0.61253,2.18281 -0.76825,0.29209 -2.16322,0.29786 -3.56629,0.0147 z m 51.46146,0.10878 c -0.14552,-0.0534 -0.75755,-0.2237 -1.36006,-0.37838 -0.98767,-0.25354 -1.11225,-0.37864 -1.26582,-1.27102 -0.0937,-0.54439 -0.23541,-1.31793 -0.31495,-1.71898 -0.13777,-0.69469 -0.11151,-0.71659 0.55544,-0.46302 0.85248,0.32412 3.57181,0.34455 4.06735,0.0306 0.5341,-0.33842 0.13656,-1.24637 -0.69857,-1.59545 -1.22494,-0.51204 -3.21806,-2.48826 -3.4996,-3.46994 -1.19077,-4.15198 1.83855,-6.2976 8.94066,-6.33251 1.8961,-0.009 1.9506,0.0497 2.00616,2.1726 l 0.0361,1.37773 -1.58625,0.22659 c -2.74105,0.39155 -3.03902,1.27406 -0.80081,2.37178 2.03433,0.99773 3.04852,2.44373 3.04852,4.34647 0,1.35616 -0.065,1.49313 -1.29042,2.71853 -0.93376,0.93376 -1.6783,1.40561 -2.69385,1.70719 -1.24222,0.3689 -4.42734,0.54095 -5.14386,0.27785 z m -45.31721,-0.50553 c -0.32572,-0.52046 -0.41275,-14.18871 -0.0924,-14.50908 0.34408,-0.34408 4.70844,-0.60264 5.75185,-0.34076 l 0.71587,0.17968 -0.17028,7.00558 c -0.0993,4.08372 -0.28727,7.22418 -0.45079,7.52971 -0.25415,0.4749 -0.52934,0.51908 -2.92928,0.4703 -1.52643,-0.031 -2.72344,-0.17316 -2.825,-0.33543 z m 26.94678,0.16319 c -0.71891,-0.14268 -0.95225,-0.34544 -1.12081,-0.97394 -0.36565,-1.36337 -0.57988,-12.34671 -0.25675,-13.16302 l 0.28802,-0.72761 h 2.76303 c 3.21772,0 3.60007,0.10136 3.60007,0.95435 0,0.77096 0.32537,0.79844 1.26748,0.10706 0.84867,-0.62281 3.25811,-1.12756 4.2496,-0.89025 1.4413,0.34497 2.20463,0.93022 2.71339,2.08037 0.46255,1.04566 0.5044,1.70469 0.43984,6.92652 l -0.0713,5.77091 h -2.73334 c -3.71209,0 -3.56337,0.25469 -3.37006,-5.77122 0.1626,-5.06849 0.0423,-5.73815 -1.03077,-5.73815 -1.36573,0 -1.46479,0.40283 -1.46479,5.95641 0,2.81867 -0.10874,5.19206 -0.24164,5.2742 -0.39901,0.2466 -4.0568,0.38789 -5.03192,0.19437 z m -26.34415,-17.21288 -0.79375,-0.16904 -0.0768,-2.18091 -0.0768,-2.1809 h 0.68331 c 0.63449,0 4.17273,0.64867 5.22507,0.95792 0.37751,0.11094 0.46302,0.44359 0.46302,1.80118 v 1.66511 l -1.38907,0.16684 c -1.62475,0.19516 -2.92706,0.17573 -4.03489,-0.0602 z"
       id="path836" />
  </g>
</svg>
