<?xml version="1.0" encoding="UTF-8" standalone="no"?>
<!-- Created with Inkscape (http://www.inkscape.org/) -->

<svg
   width="360"
   height="360"
   viewBox="0 0 95.249998 95.250003"
   version="1.1"
   id="svg8"
   inkscape:version="1.1.2 (b8e25be833, 2022-02-05)"
   sodipodi:docname="avatar.ar.svg"
   inkscape:export-filename="C:\Users\Ahmed\Desktop\يوسف الشعراوى.png"
   inkscape:export-xdpi="600"
   inkscape:export-ydpi="600"
   xmlns:inkscape="http://www.inkscape.org/namespaces/inkscape"
   xmlns:sodipodi="http://sodipodi.sourceforge.net/DTD/sodipodi-0.dtd"
   xmlns="http://www.w3.org/2000/svg"
   xmlns:svg="http://www.w3.org/2000/svg"
   xmlns:rdf="http://www.w3.org/1999/02/22-rdf-syntax-ns#"
   xmlns:cc="http://creativecommons.org/ns#"
   xmlns:dc="http://purl.org/dc/elements/1.1/">
  <title
     id="title2288">icon</title>
  <defs
     id="defs2">
    <inkscape:perspective
       sodipodi:type="inkscape:persp3d"
       inkscape:vp_x="221.48713 : 238.91448 : 1"
       inkscape:vp_y="0 : 1000 : 0"
       inkscape:vp_z="1241.6363 : 243.92206 : 1"
       inkscape:persp3d-origin="98.399803 : 215.02735 : 1"
       id="perspective865" />
  </defs>
  <sodipodi:namedview
     id="base"
     pagecolor="#ffffff"
     bordercolor="#666666"
     borderopacity="1.0"
     inkscape:pageopacity="0.0"
     inkscape:pageshadow="2"
     inkscape:zoom="0.74722222"
     inkscape:cx="-97.026023"
     inkscape:cy="147.2119"
     inkscape:document-units="mm"
     inkscape:current-layer="layer1"
     showgrid="false"
     units="px"
     inkscape:showpageshadow="false"
     inkscape:snap-page="true"
     inkscape:window-width="1920"
     inkscape:window-height="1017"
     inkscape:window-x="-8"
     inkscape:window-y="-8"
     inkscape:window-maximized="1"
     inkscape:snap-others="true"
     inkscape:object-nodes="false"
     inkscape:snap-nodes="true"
     inkscape:snap-global="false"
     inkscape:snap-bbox="true"
     inkscape:pagecheckerboard="0"
     inkscape:bbox-nodes="true"
     inkscape:snap-bbox-edge-midpoints="true"
     inkscape:snap-intersection-paths="false"
     inkscape:object-paths="false"
     inkscape:snap-smooth-nodes="false"
     inkscape:snap-bbox-midpoints="true">
    <inkscape:grid
       type="xygrid"
       id="grid28876" />
  </sodipodi:namedview>
  <metadata
     id="metadata5">
    <rdf:RDF>
      <cc:Work
         rdf:about="">
        <dc:format>image/svg+xml</dc:format>
        <dc:type
           rdf:resource="http://purl.org/dc/dcmitype/StillImage" />
        <dc:title>icon</dc:title>
      </cc:Work>
    </rdf:RDF>
  </metadata>
  <g
     inkscape:groupmode="layer"
     id="layer2"
     inkscape:label="الخلفية"
     style="display:inline"
     sodipodi:insensitive="true">
    <rect
       style="display:inline;fill:#ffb90d;fill-opacity:0.92549;stroke-width:0.264583"
       id="rect815"
       width="95.25"
       height="95.25"
       x="0"
       y="201.74998"
       transform="translate(0,-201.74998)" />
    <rect
       style="display:inline;fill:#ffe190;fill-opacity:1;stroke:none;stroke-width:0.1;stroke-linejoin:bevel;stroke-miterlimit:4;stroke-dasharray:none"
       id="rect895"
       width="52.521206"
       height="51.006241"
       x="21.364397"
       y="223.87186"
       ry="3.8808727"
       transform="translate(0,-201.74998)" />
    <rect
       style="display:inline;fill:none;fill-opacity:1;stroke:#ffd25c;stroke-width:1.4249;stroke-linecap:round;stroke-linejoin:bevel;stroke-miterlimit:4;stroke-dasharray:8.54938, 8.54938;stroke-dashoffset:0;stroke-opacity:1;paint-order:markers fill stroke"
       id="rect899"
       width="63.178265"
       height="63.178265"
       x="16.035868"
       y="217.78586"
       ry="7.353291"
       transform="translate(0,-201.74998)" />
  </g>
  <g
     inkscape:label="الاسم"
     inkscape:groupmode="layer"
     id="layer1"
     transform="translate(0,-201.74998)"
     style="display:inline"
     sodipodi:insensitive="true">
    <path
       style="fill:#d7f4e3;stroke:#000000;stroke-width:1.1;stroke-linecap:butt;stroke-linejoin:round;stroke-miterlimit:4;stroke-dasharray:none;stroke-opacity:1"
       d="m 71.838288,226.65343 v 22.33881 l -2.154971,0.57742 -1.78717,-22.07148 z"
       id="path836"
       inkscape:connector-curvature="0" />
    <path
       style="fill:#d7f4e3;stroke:#000000;stroke-width:1.1;stroke-linecap:butt;stroke-linejoin:round;stroke-miterlimit:4;stroke-dasharray:none;stroke-opacity:1"
       d="m 53.872305,237.54125 12.671169,1.12633 1.87721,10.2308 H 45.510056 l -1.407907,3.00353 h -5.243552 l -0.657025,-3.00353 h -4.091951 l -0.75088,-1.12633 -1.501768,1.87721 H 21.813895 l 1.126323,-3.94214 9.104477,-0.37544 -0.657026,-8.44745 5.068467,-1.12632 -1.032462,9.85535 h 2.893059 l 0.375442,-3.00354 6.817881,0.18772 v 3.5667 l 18.593045,-1.22019 -1.314048,-3.00353 -7.133399,-0.4693 z"
       id="path838"
       inkscape:connector-curvature="0"
       sodipodi:nodetypes="cccccccccccccccccccccccc" />
    <path
       style="fill:#ffffff;fill-opacity:1;stroke:#000000;stroke-width:1.1;stroke-linecap:butt;stroke-linejoin:round;stroke-miterlimit:4;stroke-dasharray:none;stroke-opacity:1"
       d="m 71.838288,226.65343 v 22.33881 l -2.154971,0.57742 -1.78717,-22.07148 z"
       id="path7952"
       inkscape:connector-curvature="0" />
    <path
       style="fill:#d7f4e3;stroke:#000000;stroke-width:1.1;stroke-linecap:butt;stroke-linejoin:round;stroke-miterlimit:4;stroke-dasharray:none;stroke-opacity:1"
       d="m 72.016455,219.35848 -6.11177,1.89179 2.306336,4.38039 -2.62159,1.01212 0.497772,2.43908 8.495282,-2.62158 -0.69688,-2.58842 -3.284972,0.96223 -1.217322,-2.85652 3.429577,-0.2298 z"
       id="path840"
       inkscape:connector-curvature="0"
       sodipodi:nodetypes="ccccccccccc" />
    <path
       style="fill:#ffffff;fill-opacity:1;stroke:#000000;stroke-width:1.1;stroke-linecap:butt;stroke-linejoin:round;stroke-miterlimit:4;stroke-dasharray:none;stroke-opacity:1"
       d="m 53.872305,237.54125 12.671169,1.12633 1.87721,10.2308 H 45.510056 l -1.407907,3.00353 h -5.243552 l -0.657025,-3.00353 h -4.091951 l -0.75088,-1.12633 -1.501768,1.87721 H 21.813895 l 1.126323,-3.94214 9.104477,-0.37544 -0.657026,-8.44745 5.068467,-1.12632 -1.032462,9.85535 h 2.893059 l 0.375442,-3.00354 6.817881,0.18772 v 3.5667 l 18.593045,-1.22019 -1.314048,-3.00353 -7.133399,-0.4693 z"
       id="path7954"
       inkscape:connector-curvature="0"
       sodipodi:nodetypes="cccccccccccccccccccccccc" />
    <path
       style="fill:#ffb900;fill-opacity:1;stroke:#000000;stroke-width:1.1;stroke-linecap:butt;stroke-linejoin:round;stroke-miterlimit:4;stroke-dasharray:none;stroke-opacity:1"
       d="m 43.381835,246.05117 -2.862777,0.10975 0.04696,2.753 2.79235,-0.37544 z"
       id="path842"
       inkscape:connector-curvature="0"
       sodipodi:nodetypes="ccccc" />
    <path
       style="fill:#ffffff;fill-opacity:1;stroke:#000000;stroke-width:1.1;stroke-linecap:butt;stroke-linejoin:round;stroke-miterlimit:4;stroke-dasharray:none;stroke-opacity:1"
       d="m 72.016455,219.35848 -6.11177,1.89179 2.306336,4.38039 -2.62159,1.01212 0.497772,2.43908 8.495282,-2.62158 -0.69688,-2.58842 -3.284972,0.96223 -1.217322,-2.85652 3.429577,-0.2298 z"
       id="path7956"
       inkscape:connector-curvature="0"
       sodipodi:nodetypes="ccccccccccc" />
    <path
       style="fill:#d7f4e3;stroke:#000000;stroke-width:1.1;stroke-linecap:butt;stroke-linejoin:round;stroke-miterlimit:4;stroke-dasharray:none;stroke-opacity:1"
       d="m 61.451355,265.97392 12.38157,1.47525 0.05268,7.42894 -23.077141,1.15912 -1.310596,-23.07747 5.479502,0.36881 -1.956029,19.70547 17.070761,-0.85567 0.481322,-2.16937 -10.966142,-0.24158 z"
       id="path844"
       inkscape:connector-curvature="0"
       sodipodi:nodetypes="ccccccccccc" />
    <path
       style="fill:#ffffff;fill-opacity:1;stroke:#000000;stroke-width:1.1;stroke-linecap:butt;stroke-linejoin:round;stroke-miterlimit:4;stroke-dasharray:none;stroke-opacity:1"
       d="m 61.451355,265.97392 12.38157,1.47525 0.05268,7.42894 -23.077141,1.15912 -1.310596,-23.07747 5.479502,0.36881 -1.956029,19.70547 17.070761,-0.85567 0.481322,-2.16937 -10.966142,-0.24158 z"
       id="path7958"
       inkscape:connector-curvature="0"
       sodipodi:nodetypes="ccccccccccc" />
    <path
       style="fill:#d7f4e3;stroke:#000000;stroke-width:1.1;stroke-linecap:butt;stroke-linejoin:round;stroke-miterlimit:4;stroke-dasharray:none;stroke-opacity:1"
       d="m 40.362649,267.01955 7.209479,1.29161 1.737794,7.86702 -9.205592,0.4227 0.187867,-2.74759 -6.669352,0.24737 -1.127222,-1.03327 -0.75148,1.59689 -9.581316,0.5636 -1.221152,-3.47558 9.205588,-0.18787 -3.099844,-8.45412 6.857233,-0.0939 -0.563614,8.26624 7.02161,-0.41177 z"
       id="path848"
       inkscape:connector-curvature="0"
       sodipodi:nodetypes="cccccccccccccccc" />
    <path
       style="fill:#ffffff;fill-opacity:1;stroke:#000000;stroke-width:1.1;stroke-linecap:butt;stroke-linejoin:round;stroke-miterlimit:4;stroke-dasharray:none;stroke-opacity:1"
       d="m 40.362649,267.01955 7.209479,1.29161 1.737794,7.86702 -9.205592,0.4227 0.187867,-2.74759 -6.669352,0.24737 -1.127222,-1.03327 -0.75148,1.59689 -9.581316,0.5636 -1.221152,-3.47558 9.205588,-0.18787 -3.099844,-8.45412 6.857233,-0.0939 -0.563614,8.26624 7.02161,-0.41177 z"
       id="path7960"
       inkscape:connector-curvature="0"
       sodipodi:nodetypes="cccccccccccccccc" />
    <path
       style="fill:#ffb900;fill-opacity:1;stroke:#000000;stroke-width:1.1;stroke-linecap:butt;stroke-linejoin:round;stroke-miterlimit:4;stroke-dasharray:none;stroke-opacity:1"
       d="m 45.566433,271.17884 -2.308052,-0.50856 -0.03912,2.89486 2.327612,-0.31296 z"
       id="path842-0"
       inkscape:connector-curvature="0" />
    <path
       style="fill:#ffe6a3;fill-opacity:1;stroke:#000000;stroke-width:1.1;stroke-linecap:butt;stroke-linejoin:round;stroke-miterlimit:4;stroke-dasharray:none;stroke-opacity:1"
       d="m 43.381835,246.05117 -2.862777,0.10975 0.04696,2.753 2.79235,-0.37544 z"
       id="path10932"
       inkscape:connector-curvature="0"
       sodipodi:nodetypes="ccccc" />
    <path
       style="fill:#ffe6a3;fill-opacity:1;stroke:#000000;stroke-width:1.1;stroke-linecap:butt;stroke-linejoin:round;stroke-miterlimit:4;stroke-dasharray:none;stroke-opacity:1"
       d="m 45.566433,271.17884 -2.308052,-0.50856 -0.03912,2.89486 2.327612,-0.31296 z"
       id="path10934"
       inkscape:connector-curvature="0" />
  </g>
</svg>
