<?xml version="1.0" encoding="UTF-8" standalone="no"?>
<!-- Created with Inkscape (http://www.inkscape.org/) -->

<svg
   width="360"
   height="360"
   viewBox="0 0 95.249998 95.250003"
   version="1.1"
   id="svg8"
   inkscape:version="1.1.2 (b8e25be833, 2022-02-05)"
   sodipodi:docname="icon.en.svg"
   inkscape:export-filename="C:\Users\Ahmed\Desktop\يوسف الشعراوى.png"
   inkscape:export-xdpi="600"
   inkscape:export-ydpi="600"
   xmlns:inkscape="http://www.inkscape.org/namespaces/inkscape"
   xmlns:sodipodi="http://sodipodi.sourceforge.net/DTD/sodipodi-0.dtd"
   xmlns="http://www.w3.org/2000/svg"
   xmlns:svg="http://www.w3.org/2000/svg"
   xmlns:rdf="http://www.w3.org/1999/02/22-rdf-syntax-ns#"
   xmlns:cc="http://creativecommons.org/ns#"
   xmlns:dc="http://purl.org/dc/elements/1.1/">
  <title
     id="title2288">icon</title>
  <defs
     id="defs2">
    <inkscape:perspective
       sodipodi:type="inkscape:persp3d"
       inkscape:vp_x="221.48713 : 238.91448 : 1"
       inkscape:vp_y="0 : 1000 : 0"
       inkscape:vp_z="1241.6363 : 243.92206 : 1"
       inkscape:persp3d-origin="98.399803 : 215.02735 : 1"
       id="perspective865" />
  </defs>
  <sodipodi:namedview
     id="base"
     pagecolor="#ffffff"
     bordercolor="#666666"
     borderopacity="1.0"
     inkscape:pageopacity="0.0"
     inkscape:pageshadow="2"
     inkscape:zoom="0.37361111"
     inkscape:cx="-550.03718"
     inkscape:cy="77.620818"
     inkscape:document-units="mm"
     inkscape:current-layer="g2964"
     showgrid="false"
     units="px"
     inkscape:showpageshadow="false"
     inkscape:snap-page="true"
     inkscape:window-width="1920"
     inkscape:window-height="1017"
     inkscape:window-x="-8"
     inkscape:window-y="-8"
     inkscape:window-maximized="1"
     inkscape:snap-others="true"
     inkscape:object-nodes="false"
     inkscape:snap-nodes="true"
     inkscape:snap-global="false"
     inkscape:snap-bbox="true"
     inkscape:pagecheckerboard="0"
     inkscape:bbox-nodes="true"
     inkscape:snap-bbox-edge-midpoints="true"
     inkscape:snap-intersection-paths="false"
     inkscape:object-paths="false"
     inkscape:snap-smooth-nodes="false"
     inkscape:snap-bbox-midpoints="true">
    <inkscape:grid
       type="xygrid"
       id="grid28876" />
  </sodipodi:namedview>
  <metadata
     id="metadata5">
    <rdf:RDF>
      <cc:Work
         rdf:about="">
        <dc:format>image/svg+xml</dc:format>
        <dc:type
           rdf:resource="http://purl.org/dc/dcmitype/StillImage" />
        <dc:title>icon</dc:title>
      </cc:Work>
    </rdf:RDF>
  </metadata>
  <g
     inkscape:groupmode="layer"
     id="g2964"
     inkscape:label="Icon"
     style="display:inline">
    <g
       id="g2094"
       transform="matrix(1.6821889,0,0,1.6821889,-32.48925,-32.489249)">
      <path
         id="path2952"
         style="fill:#ffe5a0;fill-opacity:1;stroke:#000000;stroke-width:2.64567;stroke-linecap:butt;stroke-linejoin:round;stroke-miterlimit:4;stroke-dasharray:none;stroke-opacity:1"
         d="m 129.94727,190.81836 -15.45508,59.44141 h 9.27343 l 4.82618,-23.67774 18.35742,-0.0996 4.63672,23.77735 h 9.27148 L 145.5625,191.88086 Z m 3.72461,16.06836 8.86523,0.9082 1.32031,9.34375 -12.64258,0.4043 z"
         transform="scale(0.26458333)" />
      <path
         id="path2918"
         style="fill:#ffe5a0;fill-opacity:1;stroke:#000000;stroke-width:0.7;stroke-linecap:butt;stroke-linejoin:round;stroke-miterlimit:4;stroke-dasharray:none;stroke-opacity:1"
         d="m 66.738044,29.070577 v 15.657441 h 4.541324 l 3.007053,-2.35231 0.49816,-5.491654 -0.09353,-5.86631 -4.284494,-1.947167 z m 2.578137,2.640666 2.858741,1.020091 0.311608,6.084385 -1.121379,2.967778 -2.422591,0.52193 z" />
      <path
         style="fill:#ffe5a0;fill-opacity:1;stroke:#000000;stroke-width:0.7;stroke-linecap:butt;stroke-linejoin:round;stroke-miterlimit:4;stroke-dasharray:none;stroke-opacity:1"
         d="m 57.211377,29.070358 h 8.314966 v 2.940063 l -5.183463,-0.33047 v 4.175345 l 4.676741,-0.110068 -0.08818,2.984111 -4.588605,-0.264387 v 3.653433 l 5.073312,-0.374537 0.110069,2.984111 H 57.21125 Z"
         id="path2924"
         sodipodi:nodetypes="ccccccccccccc" />
      <path
         style="fill:#ffe5a0;fill-opacity:1;stroke:#000000;stroke-width:0.7;stroke-linecap:butt;stroke-linejoin:round;stroke-miterlimit:4;stroke-dasharray:none;stroke-opacity:1"
         d="M 43.473721,44.727879 V 29.070358 l 2.807859,0.22032 3.455149,7.60844 3.521232,-7.674542 2.741777,-0.154258 v 15.657521 h -2.609593 l 0.478709,-10.399808 -3.110337,5.334859 -2.065628,-0.154258 -3.03824,-5.102941 0.428666,10.322109 z"
         id="path2926"
         sodipodi:nodetypes="cccccccccccccc" />
      <path
         style="fill:#ffe5a0;fill-opacity:1;stroke:#000000;stroke-width:0.7;stroke-linecap:butt;stroke-linejoin:round;stroke-miterlimit:4;stroke-dasharray:none;stroke-opacity:1"
         d="m 31.823859,29.070358 v 15.657521 h 2.609588 l -0.311573,-6.636896 6.052662,0.373887 -0.521917,6.263009 h 2.609589 V 29.070358 h -2.609589 l 0.521917,7.30685 -5.741089,-0.521912 0.323632,-6.586652 z"
         id="path2928"
         sodipodi:nodetypes="ccccccccccccc" />
      <path
         id="path2940"
         style="fill:#ffe5a0;fill-opacity:1;stroke:#000000;stroke-width:0.7;stroke-linecap:butt;stroke-linejoin:round;stroke-miterlimit:4;stroke-dasharray:none;stroke-opacity:1"
         d="m 66.738044,50.52198 v 15.657441 h 4.541324 l 3.007053,-2.352309 0.49816,-5.491139 -0.09353,-5.866307 -4.284494,-1.947686 z m 2.578137,2.640666 2.858741,1.02061 0.311608,6.084382 -1.121379,2.967262 -2.422591,0.52193 z" />
      <path
         style="fill:#ffe5a0;fill-opacity:1;stroke:#000000;stroke-width:0.7;stroke-linecap:butt;stroke-linejoin:round;stroke-miterlimit:4;stroke-dasharray:none;stroke-opacity:1"
         d="m 57.211377,50.52212 h 8.314966 v 2.940063 l -5.183463,-0.33047 v 4.175345 l 4.676741,-0.110069 -0.08818,2.984112 -4.588605,-0.264388 v 3.653434 l 5.073312,-0.374537 0.110069,2.984111 H 57.21125 Z"
         id="path2946"
         sodipodi:nodetypes="ccccccccccccc" />
      <path
         style="fill:#ffe5a0;fill-opacity:1;stroke:#000000;stroke-width:0.7;stroke-linecap:butt;stroke-linejoin:round;stroke-miterlimit:4;stroke-dasharray:none;stroke-opacity:1"
         d="M 43.473721,66.179641 V 50.52212 l 2.807859,0.22032 3.455149,7.60844 3.521232,-7.674542 2.741777,-0.154258 v 15.657521 h -2.609593 l 0.478709,-10.399808 -3.110337,5.334859 -2.065628,-0.154258 -3.03824,-5.102941 0.428666,10.322108 z"
         id="path2948"
         sodipodi:nodetypes="cccccccccccccc" />
      <path
         style="fill:#ffb900;fill-opacity:1;stroke:#000000;stroke-width:0.7;stroke-linecap:butt;stroke-linejoin:round;stroke-miterlimit:4;stroke-dasharray:none;stroke-opacity:1"
         d="m 20.47436,50.52212 v 15.657521 h 2.609588 l -0.311573,-6.636896 6.052661,0.373887 -0.521917,6.263009 h 2.609589 V 50.52212 h -2.609589 l 0.521917,7.30685 -5.741088,-0.521912 0.323631,-6.586652 z"
         id="path2960"
         sodipodi:nodetypes="ccccccccccccc" />
      <path
         id="path2932"
         style="fill:#ffb900;fill-opacity:1;stroke:#000000;stroke-width:2.64567;stroke-linecap:butt;stroke-linejoin:round;stroke-miterlimit:4;stroke-dasharray:none;stroke-opacity:1"
         d="m 92.804688,109.74023 -15.455079,59.44141 h 9.273438 l 4.826172,-23.67578 18.357421,-0.0996 4.63672,23.77539 h 9.27344 l -15.29688,-58.37891 z m 3.724609,16.06836 8.865233,0.90821 1.32031,9.34375 -12.642574,0.40429 z"
         transform="scale(0.26458333)" />
    </g>
  </g>
</svg>
