<?xml version="1.0" encoding="UTF-8" standalone="no"?>
<!-- Created with Inkscape (http://www.inkscape.org/) -->

<svg
   width="360"
   height="360"
   viewBox="0 0 95.249998 95.250003"
   version="1.1"
   id="svg8"
   inkscape:version="1.1.2 (b8e25be833, 2022-02-05)"
   sodipodi:docname="icon.ar.svg"
   inkscape:export-filename="C:\Users\Ahmed\Desktop\يوسف الشعراوى.png"
   inkscape:export-xdpi="600"
   inkscape:export-ydpi="600"
   xmlns:inkscape="http://www.inkscape.org/namespaces/inkscape"
   xmlns:sodipodi="http://sodipodi.sourceforge.net/DTD/sodipodi-0.dtd"
   xmlns="http://www.w3.org/2000/svg"
   xmlns:svg="http://www.w3.org/2000/svg"
   xmlns:rdf="http://www.w3.org/1999/02/22-rdf-syntax-ns#"
   xmlns:cc="http://creativecommons.org/ns#"
   xmlns:dc="http://purl.org/dc/elements/1.1/">
  <title
     id="title2288">icon</title>
  <defs
     id="defs2">
    <inkscape:perspective
       sodipodi:type="inkscape:persp3d"
       inkscape:vp_x="221.48713 : 238.91448 : 1"
       inkscape:vp_y="0 : 1000 : 0"
       inkscape:vp_z="1241.6363 : 243.92206 : 1"
       inkscape:persp3d-origin="98.399803 : 215.02735 : 1"
       id="perspective865" />
  </defs>
  <sodipodi:namedview
     id="base"
     pagecolor="#ffffff"
     bordercolor="#666666"
     borderopacity="1.0"
     inkscape:pageopacity="0.0"
     inkscape:pageshadow="2"
     inkscape:zoom="0.18680556"
     inkscape:cx="-1324.9071"
     inkscape:cy="-417.54647"
     inkscape:document-units="mm"
     inkscape:current-layer="g1249"
     showgrid="false"
     units="px"
     inkscape:showpageshadow="false"
     inkscape:snap-page="true"
     inkscape:window-width="1920"
     inkscape:window-height="1017"
     inkscape:window-x="-8"
     inkscape:window-y="-8"
     inkscape:window-maximized="1"
     inkscape:snap-others="true"
     inkscape:object-nodes="false"
     inkscape:snap-nodes="true"
     inkscape:snap-global="false"
     inkscape:snap-bbox="true"
     inkscape:pagecheckerboard="0"
     inkscape:bbox-nodes="true"
     inkscape:snap-bbox-edge-midpoints="true"
     inkscape:snap-intersection-paths="false"
     inkscape:object-paths="false"
     inkscape:snap-smooth-nodes="false"
     inkscape:snap-bbox-midpoints="true">
    <inkscape:grid
       type="xygrid"
       id="grid28876" />
  </sodipodi:namedview>
  <metadata
     id="metadata5">
    <rdf:RDF>
      <cc:Work
         rdf:about="">
        <dc:format>image/svg+xml</dc:format>
        <dc:type
           rdf:resource="http://purl.org/dc/dcmitype/StillImage" />
        <dc:title>icon</dc:title>
      </cc:Work>
    </rdf:RDF>
  </metadata>
  <g
     inkscape:label="الأيقونة"
     inkscape:groupmode="layer"
     id="g1249"
     transform="translate(0,-201.74998)"
     style="display:inline">
    <g
       id="g2818"
       transform="matrix(1.604738,0,0,1.604738,-29.020793,-148.56731)">
      <path
         style="fill:#ffb900;fill-opacity:1;stroke:#000000;stroke-width:1.1;stroke-linecap:butt;stroke-linejoin:round;stroke-miterlimit:4;stroke-dasharray:none;stroke-opacity:1"
         d="m 71.838288,226.65343 v 22.33881 l -2.154971,0.57742 -1.78717,-22.07148 z"
         id="path1221"
         inkscape:connector-curvature="0" />
      <path
         style="fill:#ffb900;fill-opacity:1;stroke:#000000;stroke-width:1.1;stroke-linecap:butt;stroke-linejoin:round;stroke-miterlimit:4;stroke-dasharray:none;stroke-opacity:1"
         d="m 72.016455,219.35848 -6.11177,1.89179 2.306336,4.38039 -2.62159,1.01212 0.497772,2.43908 8.495282,-2.62158 -0.69688,-2.58842 -3.284972,0.96223 -1.217322,-2.85652 3.429577,-0.2298 z"
         id="path1227"
         inkscape:connector-curvature="0"
         sodipodi:nodetypes="ccccccccccc" />
      <path
         id="path1229"
         style="fill:#ffb900;fill-opacity:1;stroke:#000000;stroke-width:4.15748;stroke-linecap:butt;stroke-linejoin:round;stroke-miterlimit:4;stroke-dasharray:none;stroke-opacity:1"
         d="m 137.78711,128.5332 -19.15625,4.25782 2.48242,31.92773 -34.410155,1.41797 -4.257813,14.90039 H 120.4043 l 5.67578,-7.0957 2.83789,4.25781 h 15.4668 l 2.48242,11.35156 h 19.81836 l 5.32031,-11.35156 h 86.5918 l -7.09571,-38.66797 -47.89062,-4.25781 6.74023,15.60937 26.96094,1.77344 4.9668,11.35156 -70.27344,4.61328 v -13.48047 l -25.76758,-0.71093 -1.41992,11.35351 h -10.93359 z m 26.17578,38.9043 -0.0879,9.40039 -10.55469,1.41992 -0.17773,-10.40625 z"
         transform="matrix(0.26458333,0,0,0.26458333,0,201.74998)" />
      <path
         style="fill:#ffb900;fill-opacity:1;stroke:#000000;stroke-width:1.1;stroke-linecap:butt;stroke-linejoin:round;stroke-miterlimit:4;stroke-dasharray:none;stroke-opacity:1"
         d="m 61.451355,265.97392 12.38157,1.47525 0.05268,7.42894 -23.077141,1.15912 -1.310596,-23.07747 5.479502,0.36881 -1.956029,19.70547 17.070761,-0.85567 0.481322,-2.16937 -10.966142,-0.24158 z"
         id="path1235"
         inkscape:connector-curvature="0"
         sodipodi:nodetypes="ccccccccccc" />
      <path
         id="path1241"
         style="fill:#ffb900;fill-opacity:1;stroke:#000000;stroke-width:4.15748;stroke-linecap:butt;stroke-linejoin:round;stroke-miterlimit:4;stroke-dasharray:none;stroke-opacity:1"
         d="m 128.14453,231.55859 -25.91797,0.35352 11.7168,31.95312 -34.792969,0.71094 4.615234,13.13477 36.212895,-2.12891 2.83984,-6.03515 4.25976,3.90429 25.20704,-0.93555 -0.70899,10.38477 34.79297,-1.59766 -6.56836,-29.73242 -27.25,-4.88281 v 14.55664 l -26.53711,1.55664 z m 35.35156,28.92774 8.72266,1.92187 -0.0723,7.83594 -8.79882,1.18359 z"
         transform="matrix(0.26458333,0,0,0.26458333,0,201.74998)" />
    </g>
  </g>
</svg>
