<?xml version="1.0" encoding="UTF-8" standalone="no"?>
<!-- Created with Inkscape (http://www.inkscape.org/) -->

<svg
   width="1498.3976"
   height="244"
   viewBox="0 0 396.45102 64.558336"
   version="1.1"
   id="svg5"
   xml:space="preserve"
   xmlns:xlink="http://www.w3.org/1999/xlink"
   xmlns="http://www.w3.org/2000/svg"
   xmlns:svg="http://www.w3.org/2000/svg"><defs
     id="defs2"><radialGradient
       xlink:href="#linearGradient34931"
       id="radialGradient270455"
       gradientUnits="userSpaceOnUse"
       gradientTransform="matrix(0.29991587,0,0,0.34331574,8.4615532,79.13999)"
       cx="250.6377"
       cy="248.35547"
       fx="250.6377"
       fy="248.35547"
       r="176.03613" /><linearGradient
       id="linearGradient34931"><stop
         style="stop-color:#7cacdc;stop-opacity:1"
         offset="0"
         id="stop34927" /><stop
         style="stop-color:#00498f;stop-opacity:1"
         offset="0.81116414"
         id="stop37533" /><stop
         style="stop-color:#104276;stop-opacity:1"
         offset="1"
         id="stop34929" /></linearGradient></defs><g
     id="path1867"
     transform="matrix(6.2798252,0,0,3.5178995,454.35183,-574.105)"
     style="fill:#1e60a1;fill-opacity:1"><path
       style="color:#000000;fill:#1e60a1;fill-opacity:1;stroke-width:0.364658;stroke-linecap:square;stroke-linejoin:bevel;-inkscape-stroke:none"
       d="M -11.065164,172.37138 H -31.580358"
       id="path7112" /><path
       style="color:#000000;fill:#1e60a1;fill-opacity:1;stroke-linecap:square;stroke-linejoin:bevel;-inkscape-stroke:none"
       d="m -30.798311,172.18945 -1.602238,0.17645 1.602238,0.18683 h 0.183594 18.584025 0.183594 l 1.631045,-0.20411 -1.631045,-0.15917 h -0.183594 -18.584025 z"
       id="path7114" /></g><g
     id="g3"
     transform="matrix(6.2798252,0,0,3.5178995,209.72401,-574.105)"
     style="fill:#1e60a1;fill-opacity:1"><path
       style="color:#000000;fill:#1e60a1;fill-opacity:1;stroke-width:0.364658;stroke-linecap:square;stroke-linejoin:bevel;-inkscape-stroke:none"
       d="M -11.065164,172.37138 H -31.580358"
       id="path2" /><path
       style="color:#000000;fill:#1e60a1;fill-opacity:1;stroke-linecap:square;stroke-linejoin:bevel;-inkscape-stroke:none"
       d="m -30.798311,172.18945 -1.602238,0.17645 1.602238,0.18683 h 0.183594 18.584025 0.183594 l 1.631045,-0.20411 -1.631045,-0.15917 h -0.183594 -18.584025 z"
       id="path3" /></g><g
     id="layer1"
     transform="matrix(0.24638883,0,0,0.24638883,210.65759,-9.7246908)"><circle
       style="display:inline;fill:#e6f3ff;fill-opacity:1;stroke:none;stroke-width:0.546665;stroke-linecap:round;stroke-linejoin:round;stroke-miterlimit:4;stroke-dasharray:none;stroke-opacity:1"
       id="path154903"
       cx="83.631577"
       cy="156.76482"
       r="23.545261" /><path
       id="circle7045"
       style="color:#000000;-inkscape-font-specification:'Spicy Rice, Normal';display:inline;fill:url(#radialGradient270455);fill-opacity:1;stroke:none;stroke-width:1.13354;stroke-linecap:round;stroke-linejoin:round;stroke-miterlimit:4;stroke-dasharray:none;stroke-opacity:1"
       d="m 83.631484,103.96836 c -29.023903,0 -52.795738,23.77183 -52.795738,52.79573 0,23.31703 15.344766,43.23915 36.427478,50.17382 3.653363,-1.72372 7.10205,-3.51776 10.33128,-5.48284 7.804312,-4.74913 14.516325,-10.43711 20.748088,-18.34056 -4.337987,2.40619 -9.348342,3.77473 -14.711108,3.77473 -16.7717,0 -30.125143,-13.35344 -30.125143,-30.12515 0,-16.7717 13.353443,-30.12514 30.125143,-30.12514 16.771706,0 30.125146,13.35344 30.125146,30.12514 0,1.09398 -0.0596,2.17251 -0.17046,3.23464 -0.0635,0.37838 -0.12712,0.75681 -0.19741,1.1323 -0.39343,2.18297 -0.9185,4.28392 -1.55054,6.31522 -0.6228,1.66695 -1.39156,3.25914 -2.28452,4.76703 l 0.003,0.002 c -8.87036,15.33858 -18.44839,24.81821 -30.275684,32.01543 -2.337592,1.42249 -4.682877,2.76535 -7.203838,4.04184 0.03545,0.008 -0.03548,-0.008 0,0 -14.555535,7.44501 -30.006781,12.39292 -41.241941,16.56736 78.448853,-0.24557 102.123473,-35.77172 105.201933,-61.63681 0.15363,-0.9545 0.16033,-1.88825 0.25306,-2.97163 0.0927,-1.08337 0.13707,-2.2708 0.13707,-3.46778 0,-29.0239 -23.77242,-52.79573 -52.796325,-52.79573 z" /><g
       id="g229904"
       style="display:inline;stroke:#417db8;stroke-width:1.13287;stroke-miterlimit:4;stroke-dasharray:none;stroke-opacity:1"
       transform="matrix(0.78854777,0,0,0.78854777,31.33952,110.26321)"><g
         id="g158578"
         transform="matrix(0.86837699,0,0,0.86837699,8.7284979,7.7619664)"
         style="stroke:#417db8;stroke-width:1.30458;stroke-miterlimit:4;stroke-dasharray:none;stroke-opacity:1"><path
           style="fill:#f2f2f2;fill-opacity:1;stroke:#417db8;stroke-width:1.30458;stroke-linecap:round;stroke-linejoin:round;stroke-miterlimit:4;stroke-dasharray:none;stroke-opacity:1"
           id="circle158252"
           transform="rotate(-7.5484359)"
           d="m 81.096279,73.362365 a 23.919838,23.919838 0 0 1 -2.389602,5.769009" /><path
           style="fill:#f2f2f2;fill-opacity:1;stroke:#417db8;stroke-width:1.30458;stroke-linecap:round;stroke-linejoin:round;stroke-miterlimit:4;stroke-dasharray:none;stroke-opacity:1"
           id="path158574"
           transform="rotate(172.45156)"
           d="m -34.887497,-61.00348 a 23.919838,23.919838 0 0 1 -2.389602,5.76901" /></g><g
         id="g158584"
         transform="matrix(0.75203653,-0.43418849,0.43418849,0.75203653,-9.1660038,43.41715)"
         style="stroke:#417db8;stroke-width:1.30458;stroke-miterlimit:4;stroke-dasharray:none;stroke-opacity:1"><path
           style="fill:#f2f2f2;fill-opacity:1;stroke:#417db8;stroke-width:1.30458;stroke-linecap:round;stroke-linejoin:round;stroke-miterlimit:4;stroke-dasharray:none;stroke-opacity:1"
           id="path158580"
           transform="rotate(-7.5484359)"
           d="m 81.096279,73.362365 a 23.919838,23.919838 0 0 1 -2.389602,5.769009" /><path
           style="fill:#f2f2f2;fill-opacity:1;stroke:#417db8;stroke-width:1.30458;stroke-linecap:round;stroke-linejoin:round;stroke-miterlimit:4;stroke-dasharray:none;stroke-opacity:1"
           id="path158582"
           transform="rotate(172.45156)"
           d="m -34.887497,-61.00348 a 23.919838,23.919838 0 0 1 -2.389602,5.76901" /></g><g
         id="g158590"
         transform="matrix(0.43418849,-0.75203653,0.75203653,0.43418849,-6.8355051,83.242695)"
         style="stroke:#417db8;stroke-width:1.30458;stroke-miterlimit:4;stroke-dasharray:none;stroke-opacity:1"><path
           style="fill:#f2f2f2;fill-opacity:1;stroke:#417db8;stroke-width:1.30458;stroke-linecap:round;stroke-linejoin:round;stroke-miterlimit:4;stroke-dasharray:none;stroke-opacity:1"
           id="path158586"
           transform="rotate(-7.5484359)"
           d="m 81.096279,73.362365 a 23.919838,23.919838 0 0 1 -2.389602,5.769009" /><path
           style="fill:#f2f2f2;fill-opacity:1;stroke:#417db8;stroke-width:1.30458;stroke-linecap:round;stroke-linejoin:round;stroke-miterlimit:4;stroke-dasharray:none;stroke-opacity:1"
           id="path158588"
           transform="rotate(172.45156)"
           d="m -34.887497,-61.00348 a 23.919838,23.919838 0 0 1 -2.389602,5.76901" /></g><g
         id="g158596"
         transform="matrix(0,-0.86837699,0.86837699,0,15.095539,116.56738)"
         style="stroke:#417db8;stroke-width:1.30458;stroke-miterlimit:4;stroke-dasharray:none;stroke-opacity:1"><path
           style="fill:#f2f2f2;fill-opacity:1;stroke:#417db8;stroke-width:1.30458;stroke-linecap:round;stroke-linejoin:round;stroke-miterlimit:4;stroke-dasharray:none;stroke-opacity:1"
           id="path158592"
           transform="rotate(-7.5484359)"
           d="m 81.096279,73.362365 a 23.919838,23.919838 0 0 1 -2.389602,5.769009" /><path
           style="fill:#f2f2f2;fill-opacity:1;stroke:#417db8;stroke-width:1.30458;stroke-linecap:round;stroke-linejoin:round;stroke-miterlimit:4;stroke-dasharray:none;stroke-opacity:1"
           id="path158594"
           transform="rotate(172.45156)"
           d="m -34.887497,-61.00348 a 23.919838,23.919838 0 0 1 -2.389602,5.76901" /></g><g
         id="g158602"
         transform="matrix(-0.43418849,-0.75203653,0.75203653,-0.43418849,50.750722,134.46188)"
         style="stroke:#417db8;stroke-width:1.30458;stroke-miterlimit:4;stroke-dasharray:none;stroke-opacity:1"><path
           style="fill:#f2f2f2;fill-opacity:1;stroke:#417db8;stroke-width:1.30458;stroke-linecap:round;stroke-linejoin:round;stroke-miterlimit:4;stroke-dasharray:none;stroke-opacity:1"
           id="path158598"
           transform="rotate(-7.5484359)"
           d="m 81.096279,73.362365 a 23.919838,23.919838 0 0 1 -2.389602,5.769009" /><path
           style="fill:#f2f2f2;fill-opacity:1;stroke:#417db8;stroke-width:1.30458;stroke-linecap:round;stroke-linejoin:round;stroke-miterlimit:4;stroke-dasharray:none;stroke-opacity:1"
           id="path158600"
           transform="rotate(172.45156)"
           d="m -34.887497,-61.00348 a 23.919838,23.919838 0 0 1 -2.389602,5.76901" /></g><g
         id="g158608"
         transform="matrix(-0.75203653,-0.43418849,0.43418849,-0.75203653,90.576268,132.13138)"
         style="stroke:#417db8;stroke-width:1.30458;stroke-miterlimit:4;stroke-dasharray:none;stroke-opacity:1"><path
           style="fill:#f2f2f2;fill-opacity:1;stroke:#417db8;stroke-width:1.30458;stroke-linecap:round;stroke-linejoin:round;stroke-miterlimit:4;stroke-dasharray:none;stroke-opacity:1"
           id="path158604"
           transform="rotate(-7.5484359)"
           d="m 81.096279,73.362365 a 23.919838,23.919838 0 0 1 -2.389602,5.769009" /><path
           style="fill:#f2f2f2;fill-opacity:1;stroke:#417db8;stroke-width:1.30458;stroke-linecap:round;stroke-linejoin:round;stroke-miterlimit:4;stroke-dasharray:none;stroke-opacity:1"
           id="path158606"
           transform="rotate(172.45156)"
           d="m -34.887497,-61.00348 a 23.919838,23.919838 0 0 1 -2.389602,5.76901" /></g></g><g
       id="g225189"
       style="display:inline;fill:#1d3d5c;fill-opacity:1;stroke:#1d3d5c;stroke-width:0.999744;stroke-miterlimit:4;stroke-dasharray:none;stroke-opacity:1"
       transform="matrix(0.78854777,0,0,0.78854777,31.33952,110.26321)"><g
         id="g198469"
         transform="matrix(-0.75203653,0.43418849,-0.43418849,-0.75203653,142.36292,74.195873)"
         style="display:inline;fill:#1d3d5c;fill-opacity:1;stroke:#1d3d5c;stroke-width:1.15128;stroke-miterlimit:4;stroke-dasharray:none;stroke-opacity:1"><g
           id="g198467"
           style="fill:#1d3d5c;fill-opacity:1;stroke:#1d3d5c;stroke-width:1.15128;stroke-miterlimit:4;stroke-dasharray:none;stroke-opacity:1"><circle
             style="font-size:28.0658px;line-height:1.25;font-family:'Spicy Rice';-inkscape-font-specification:'Spicy Rice, Normal';fill:#1d3d5c;fill-opacity:1;stroke:#1d3d5c;stroke-width:1.15128;stroke-linecap:square;stroke-linejoin:round;stroke-miterlimit:4;stroke-dasharray:none;stroke-opacity:1;paint-order:normal"
             id="circle198463"
             cx="43.156593"
             cy="58.971195"
             r="0.70834321" /><circle
             style="font-size:28.0658px;line-height:1.25;font-family:'Spicy Rice';-inkscape-font-specification:'Spicy Rice, Normal';fill:#1d3d5c;fill-opacity:1;stroke:#1d3d5c;stroke-width:1.15128;stroke-linecap:square;stroke-linejoin:round;stroke-miterlimit:4;stroke-dasharray:none;stroke-opacity:1;paint-order:normal"
             id="circle198465"
             cx="90.996269"
             cy="58.971195"
             r="0.70834321" /></g></g><g
         id="g198477"
         transform="matrix(0.86837699,0,0,0.86837699,8.0667468,7.7619664)"
         style="display:inline;fill:#1d3d5c;fill-opacity:1;stroke:#1d3d5c;stroke-width:1.15128;stroke-miterlimit:4;stroke-dasharray:none;stroke-opacity:1"><g
           id="g198475"
           style="fill:#1d3d5c;fill-opacity:1;stroke:#1d3d5c;stroke-width:1.15128;stroke-miterlimit:4;stroke-dasharray:none;stroke-opacity:1"><circle
             style="font-size:28.0658px;line-height:1.25;font-family:'Spicy Rice';-inkscape-font-specification:'Spicy Rice, Normal';fill:#1d3d5c;fill-opacity:1;stroke:#1d3d5c;stroke-width:1.15128;stroke-linecap:square;stroke-linejoin:round;stroke-miterlimit:4;stroke-dasharray:none;stroke-opacity:1;paint-order:normal"
             id="circle198471"
             cx="43.156593"
             cy="58.971195"
             r="0.70834321" /><circle
             style="font-size:28.0658px;line-height:1.25;font-family:'Spicy Rice';-inkscape-font-specification:'Spicy Rice, Normal';fill:#1d3d5c;fill-opacity:1;stroke:#1d3d5c;stroke-width:1.15128;stroke-linecap:square;stroke-linejoin:round;stroke-miterlimit:4;stroke-dasharray:none;stroke-opacity:1;paint-order:normal"
             id="circle198473"
             cx="90.996269"
             cy="58.971195"
             r="0.70834321" /></g></g><g
         id="g198485"
         transform="matrix(0.75203653,0.43418849,-0.43418849,0.75203653,41.475065,-14.501112)"
         style="display:inline;fill:#1d3d5c;fill-opacity:1;stroke:#1d3d5c;stroke-width:1.15128;stroke-miterlimit:4;stroke-dasharray:none;stroke-opacity:1"><g
           id="g198483"
           style="fill:#1d3d5c;fill-opacity:1;stroke:#1d3d5c;stroke-width:1.15128;stroke-miterlimit:4;stroke-dasharray:none;stroke-opacity:1"><circle
             style="font-size:28.0658px;line-height:1.25;font-family:'Spicy Rice';-inkscape-font-specification:'Spicy Rice, Normal';fill:#1d3d5c;fill-opacity:1;stroke:#1d3d5c;stroke-width:1.15128;stroke-linecap:square;stroke-linejoin:round;stroke-miterlimit:4;stroke-dasharray:none;stroke-opacity:1;paint-order:normal"
             id="circle198479"
             cx="43.156593"
             cy="58.971195"
             r="0.70834321" /><circle
             style="font-size:28.0658px;line-height:1.25;font-family:'Spicy Rice';-inkscape-font-specification:'Spicy Rice, Normal';fill:#1d3d5c;fill-opacity:1;stroke:#1d3d5c;stroke-width:1.15128;stroke-linecap:square;stroke-linejoin:round;stroke-miterlimit:4;stroke-dasharray:none;stroke-opacity:1;paint-order:normal"
             id="circle198481"
             cx="90.996269"
             cy="58.971195"
             r="0.70834321" /></g></g><g
         id="g198493"
         transform="matrix(0.43418849,0.75203653,-0.75203653,0.43418849,81.539056,-17.077346)"
         style="display:inline;fill:#1d3d5c;fill-opacity:1;stroke:#1d3d5c;stroke-width:1.15128;stroke-miterlimit:4;stroke-dasharray:none;stroke-opacity:1"><g
           id="g198491"
           style="fill:#1d3d5c;fill-opacity:1;stroke:#1d3d5c;stroke-width:1.15128;stroke-miterlimit:4;stroke-dasharray:none;stroke-opacity:1"><circle
             style="font-size:28.0658px;line-height:1.25;font-family:'Spicy Rice';-inkscape-font-specification:'Spicy Rice, Normal';fill:#1d3d5c;fill-opacity:1;stroke:#1d3d5c;stroke-width:1.15128;stroke-linecap:square;stroke-linejoin:round;stroke-miterlimit:4;stroke-dasharray:none;stroke-opacity:1;paint-order:normal"
             id="circle198487"
             cx="43.156593"
             cy="58.971195"
             r="0.70834321" /><circle
             style="font-size:28.0658px;line-height:1.25;font-family:'Spicy Rice';-inkscape-font-specification:'Spicy Rice, Normal';fill:#1d3d5c;fill-opacity:1;stroke:#1d3d5c;stroke-width:1.15128;stroke-linecap:square;stroke-linejoin:round;stroke-miterlimit:4;stroke-dasharray:none;stroke-opacity:1;paint-order:normal"
             id="circle198489"
             cx="90.996269"
             cy="58.971195"
             r="0.70834321" /></g></g><g
         id="g198501"
         transform="matrix(0,0.86837699,-0.86837699,0,117.5236,0.72356685)"
         style="display:inline;fill:#1d3d5c;fill-opacity:1;stroke:#1d3d5c;stroke-width:1.15128;stroke-miterlimit:4;stroke-dasharray:none;stroke-opacity:1"><g
           id="g198499"
           style="fill:#1d3d5c;fill-opacity:1;stroke:#1d3d5c;stroke-width:1.15128;stroke-miterlimit:4;stroke-dasharray:none;stroke-opacity:1"><circle
             style="font-size:28.0658px;line-height:1.25;font-family:'Spicy Rice';-inkscape-font-specification:'Spicy Rice, Normal';fill:#1d3d5c;fill-opacity:1;stroke:#1d3d5c;stroke-width:1.15128;stroke-linecap:square;stroke-linejoin:round;stroke-miterlimit:4;stroke-dasharray:none;stroke-opacity:1;paint-order:normal"
             id="circle198495"
             cx="43.156593"
             cy="58.971195"
             r="0.70834321" /><circle
             style="font-size:28.0658px;line-height:1.25;font-family:'Spicy Rice';-inkscape-font-specification:'Spicy Rice, Normal';fill:#1d3d5c;fill-opacity:1;stroke:#1d3d5c;stroke-width:1.15128;stroke-linecap:square;stroke-linejoin:round;stroke-miterlimit:4;stroke-dasharray:none;stroke-opacity:1;paint-order:normal"
             id="circle198497"
             cx="90.996269"
             cy="58.971195"
             r="0.70834321" /></g></g><g
         id="g198509"
         transform="matrix(-0.43418849,0.75203653,-0.75203653,-0.43418849,139.78668,34.131883)"
         style="display:inline;fill:#1d3d5c;fill-opacity:1;stroke:#1d3d5c;stroke-width:1.15128;stroke-miterlimit:4;stroke-dasharray:none;stroke-opacity:1"><g
           id="g198507"
           style="fill:#1d3d5c;fill-opacity:1;stroke:#1d3d5c;stroke-width:1.15128;stroke-miterlimit:4;stroke-dasharray:none;stroke-opacity:1"><circle
             style="font-size:28.0658px;line-height:1.25;font-family:'Spicy Rice';-inkscape-font-specification:'Spicy Rice, Normal';fill:#1d3d5c;fill-opacity:1;stroke:#1d3d5c;stroke-width:1.15128;stroke-linecap:square;stroke-linejoin:round;stroke-miterlimit:4;stroke-dasharray:none;stroke-opacity:1;paint-order:normal"
             id="circle198503"
             cx="43.156593"
             cy="58.971195"
             r="0.70834321" /><circle
             style="font-size:28.0658px;line-height:1.25;font-family:'Spicy Rice';-inkscape-font-specification:'Spicy Rice, Normal';fill:#1d3d5c;fill-opacity:1;stroke:#1d3d5c;stroke-width:1.15128;stroke-linecap:square;stroke-linejoin:round;stroke-miterlimit:4;stroke-dasharray:none;stroke-opacity:1;paint-order:normal"
             id="circle198505"
             cx="90.996269"
             cy="58.971195"
             r="0.70834321" /></g></g></g><circle
       style="font-size:28.0658px;line-height:1.25;font-family:'Spicy Rice';-inkscape-font-specification:'Spicy Rice, Normal';display:inline;fill:#e6f3ff;fill-opacity:1;stroke:none;stroke-width:2.62475;stroke-linecap:square;stroke-linejoin:round;stroke-miterlimit:4;stroke-dasharray:none;stroke-opacity:1;paint-order:normal"
       id="circle210273"
       cx="83.631577"
       cy="156.76482"
       r="2.6740348" /><circle
       style="font-size:28.0658px;line-height:1.25;font-family:'Spicy Rice';-inkscape-font-specification:'Spicy Rice, Normal';display:inline;fill:#1d3d5c;fill-opacity:1;stroke:none;stroke-width:1.38019;stroke-linecap:square;stroke-linejoin:round;stroke-miterlimit:4;stroke-dasharray:none;stroke-opacity:1;paint-order:normal"
       id="circle210275"
       cx="83.631577"
       cy="156.76482"
       r="1.4061079" /><path
       id="path210277"
       style="font-size:28.0658px;line-height:1.25;font-family:'Spicy Rice';-inkscape-font-specification:'Spicy Rice, Normal';display:inline;fill:#1e60a1;fill-opacity:1;stroke:#1e60a1;stroke-width:0.878493;stroke-linecap:round;stroke-linejoin:round;stroke-miterlimit:4;stroke-dasharray:none;stroke-opacity:1"
       d="m 108.16145,142.60248 -21.027468,9.94289 -2.221932,1.87209 c 0.857785,0.4678 1.392148,1.36619 1.393755,2.34323 -0.0016,0.0234 -0.0035,0.0469 -0.0058,0.0703 l 2.737382,-0.98907 z" /><path
       id="path210279"
       style="font-size:28.0658px;line-height:1.25;font-family:'Spicy Rice';-inkscape-font-specification:'Spicy Rice, Normal';display:inline;fill:#1e60a1;fill-opacity:1;stroke:#1e60a1;stroke-width:0.878493;stroke-linecap:round;stroke-linejoin:round;stroke-miterlimit:4;stroke-dasharray:none;stroke-opacity:1"
       d="m 65.889262,146.52129 12.336482,9.32078 2.734374,0.98835 c -0.02292,-1.00084 0.515122,-1.93065 1.394269,-2.4095 l -2.224978,-1.87625 z" /><g
       id="g1363"
       transform="matrix(8.2268954,0,0,8.2268954,80.004294,-1193.2414)"><g
         aria-label="وردياتي"
         id="text7051"
         style="font-size:12.5967px;line-height:1.25;font-family:Lalezar;-inkscape-font-specification:'Lalezar, Normal';display:inline;fill:#1e60a1;stroke-width:0.220961"
         transform="translate(-0.4848579,0.92811963)"><path
           d="m -10.40181,160.93761 q 0.6172386,0 1.0455264,0.44089 0.4282878,0.42828 0.629835,1.09591 0.2015472,0.66762 0.1637571,1.32265 -0.062983,1.37304 -0.7432053,2.74608 -0.6802218,1.37304 -1.4738142,2.3178 -0.403094,-0.15117 -1.007736,-0.55426 -0.592045,-0.3905 -0.894365,-0.73061 0.03779,-0.0504 0.08818,-0.10077 0.06298,-0.0504 0.11337,-0.11337 1.058123,-1.09591 1.587184,-1.88951 -0.743205,-0.16375 -1.247073,-0.61724 -0.503868,-0.46607 -0.503868,-1.15889 0,-0.61724 0.340111,-1.25967 0.340111,-0.65503 0.856575,-1.07072 0.529062,-0.42829 1.045526,-0.42829 z m -0.30232,2.49415 q 0.30232,0.0378 0.629834,0.0378 0.2771279,0 0.4030949,-0.0126 -0.2141439,-0.26453 -0.5416579,-0.42829 -0.314918,-0.17635 -0.617238,-0.17635 -0.226741,0 -0.377901,0.10077 -0.138564,0.0882 -0.138564,0.26453 0.07558,0.13857 0.642432,0.21415 z"
           id="path1575" /><path
           d="m -15.289321,168.96171 q -0.440884,-0.16376 -1.032929,-0.56685 -0.604642,-0.3905 -0.869172,-0.71801 0.604641,-0.89437 1.184089,-2.12885 0.604642,-1.25967 0.99514,-2.54453 l 1.763538,0.59204 q -0.214144,1.24708 -0.780996,2.73349 -0.352707,0.91956 -0.730608,1.63757 -0.365305,0.73061 -0.529062,0.99514 z"
           id="path1577" /><path
           d="m -18.060588,159.56457 q 0.642432,0.95735 1.032929,2.01547 0.403095,1.05813 0.403095,2.11625 0,0.83138 -0.277128,1.62497 -0.365304,0.16376 -1.22188,0.31492 -0.843978,0.13856 -1.687957,0.13856 -0.793592,0 -1.347847,-0.13856 0.03779,-1.09591 0.415691,-2.24221 0.692818,0.063 1.310057,0.063 0.541658,0 1.032929,-0.0378 -0.478675,-1.24707 -1.398234,-2.38078 z"
           id="path1579" /><path
           d="m -22.141925,161.42888 q 0.22674,0.71801 0.22674,1.65017 0,0.68022 -0.138564,1.28486 -0.125967,0.60465 -0.3779,1.00774 -0.503868,0.17635 -1.158897,0.27713 -0.655028,0.0882 -1.347847,0.0882 -0.667625,0 -1.284863,-0.0882 -0.604642,-0.10078 -1.045526,-0.27713 -0.11337,-0.45348 -0.188951,-4.09393 l -0.07558,-2.55713 2.028069,-0.11337 q 0.11337,1.87691 0.11337,3.4389 0,0.47868 -0.02519,1.28486 0.440884,0.063 0.831382,0.063 0.503868,0 0.856575,-0.10078 -0.11337,-0.46607 -0.440884,-1.39823 z m -1.700555,4.92531 q 0.201547,0 0.629835,0.30232 0.440885,0.31492 0.478675,0.49127 0.02519,0.18895 -0.277128,0.61724 -0.30232,0.42829 -0.516464,0.57945 -0.239338,-0.10077 -0.604642,-0.35271 -0.365304,-0.23933 -0.541658,-0.44088 -0.125967,0.22674 -0.327514,0.46608 -0.201547,0.23933 -0.327514,0.32751 -0.251934,-0.11337 -0.642432,-0.3905 -0.390498,-0.26453 -0.554255,-0.45348 0.07558,-0.26453 0.377901,-0.70541 0.302321,-0.44089 0.503868,-0.44089 0.201547,0 0.604642,0.27713 0.403094,0.28972 0.491271,0.47867 0.176354,-0.31491 0.365304,-0.54165 0.188951,-0.21415 0.340111,-0.21415 z"
           id="path1581" /><path
           d="m -31.047783,161.00059 q -0.251934,-0.11337 -0.642432,-0.3779 -0.390497,-0.27712 -0.554254,-0.46607 0.07558,-0.26453 0.377901,-0.70542 0.30232,-0.44088 0.503868,-0.44088 0.201547,0 0.604641,0.28972 0.403095,0.27713 0.491271,0.46608 0.176354,-0.31492 0.365305,-0.52906 0.18895,-0.22674 0.340111,-0.22674 0.201547,0 0.629835,0.31491 0.440884,0.30232 0.478674,0.47868 0.02519,0.18895 -0.277127,0.61724 -0.302321,0.42828 -0.516465,0.57944 -0.239337,-0.10077 -0.604641,-0.34011 -0.365305,-0.25193 -0.541658,-0.45348 -0.125967,0.22674 -0.327515,0.46608 -0.201547,0.23934 -0.327514,0.32751 z m 2.809064,2.01548 q 0,0.66762 -0.138564,1.28486 -0.138563,0.61724 -0.390497,1.02033 -0.718012,0.21415 -1.889505,0.36531 0.0126,0.46607 -0.02519,0.89436 -0.03779,0.44089 -0.100773,0.69282 -0.944753,0.79359 -2.091052,1.28486 -1.1463,0.49128 -2.242213,0.49128 -1.322653,0 -2.154036,-0.71802 -0.818785,-0.71801 -0.818785,-2.09105 0,-0.7558 0.201547,-1.65017 0.214144,-0.90696 0.604642,-1.85171 l 1.738344,0.56685 q -0.491271,1.39823 -0.491271,2.22962 0,0.60464 0.302321,0.91956 0.314917,0.31491 0.894366,0.31491 0.957349,0 2.506743,-0.83138 -0.340111,-0.30232 -0.755802,-0.55425 -0.403095,-0.25194 -0.919559,-0.54166 l -0.239338,-0.13857 0.617239,-1.66276 q 1.801328,0.3653 2.972821,0.3653 0.201547,0 0.629835,-0.0252 -0.151161,-0.62983 -0.377901,-1.25967 -0.02519,-0.0882 -0.05039,-0.15116 -0.02519,-0.063 -0.03779,-0.12597 l 2.015472,-0.46607 q 0.239337,0.7558 0.239337,1.63757 z m -5.781885,6.43691 q 0.201547,0 0.629835,0.30232 0.440884,0.31492 0.478675,0.49127 0.02519,0.18895 -0.277128,0.61724 -0.302321,0.42829 -0.516465,0.57945 -0.239337,-0.10077 -0.604641,-0.35271 -0.365304,-0.23934 -0.541658,-0.44088 -0.125967,0.22674 -0.327514,0.46607 -0.201548,0.23934 -0.327515,0.32752 -0.251934,-0.11337 -0.642431,-0.3905 -0.390498,-0.26453 -0.554255,-0.45348 0.07558,-0.26453 0.377901,-0.70542 0.302321,-0.44088 0.503868,-0.44088 0.201547,0 0.604642,0.27713 0.403094,0.28972 0.491271,0.47867 0.176354,-0.31492 0.365304,-0.54166 0.188951,-0.21414 0.340111,-0.21414 z"
           id="path1583" /></g><g
         id="path1867-6"><path
           style="color:#000000;fill:#000000;fill-opacity:0;stroke-width:0.364658;stroke-linecap:square;stroke-linejoin:bevel;-inkscape-stroke:none"
           d="M -11.065164,172.37138 H -31.580358"
           id="path7112-7" /><path
           style="color:#000000;fill:#1e60a1;stroke-linecap:square;stroke-linejoin:bevel;-inkscape-stroke:none"
           d="m -30.798311,172.18945 -1.602238,0.17645 1.602238,0.18683 h 0.183594 18.584025 0.183594 l 1.631045,-0.20411 -1.631045,-0.15917 h -0.183594 -18.584025 z"
           id="path7114-5" /></g></g></g></svg>
