<?xml version="1.0" encoding="UTF-8" standalone="no"?>
<!-- Created with Inkscape (http://www.inkscape.org/) -->

<svg
   width="500.00003"
   height="500.00006"
   viewBox="0 0 132.29167 132.29169"
   version="1.1"
   id="svg5"
   xmlns="http://www.w3.org/2000/svg"
   xmlns:svg="http://www.w3.org/2000/svg">
  <defs
     id="defs2" />
  <g
     id="layer1">
    <rect
       style="fill:#ffffff;stroke-width:0.1"
       id="rect844"
       width="132.29167"
       height="132.29167"
       x="0"
       y="0" />
    <path
       style="fill:#0d6cfa;fill-opacity:1;stroke-width:0.107304"
       d="M 71.404004,77.589859 V 74.85359 h 0.321914 c 0.214607,0 0.321913,0.05365 0.321913,0.160958 0,0.198492 0.01075,0.198511 0.39013,5.07e-4 0.705341,-0.367864 1.707974,-0.02823 2.082195,0.70528 0.192042,0.376441 0.22505,0.596103 0.193609,1.288477 -0.04065,0.895209 -0.188215,1.208582 -0.775701,1.647307 -0.31436,0.234758 -1.177687,0.304677 -1.648797,0.133531 -0.236833,-0.08604 -0.241436,-0.07223 -0.241436,0.724306 v 0.812019 h -0.321913 -0.321914 v -2.736268 z m 2.122619,0.526616 c 0.557666,-0.365395 0.720195,-1.604632 0.295471,-2.25285 C 73.580673,75.495173 72.9084,75.341506 72.42377,75.543997 l -0.383041,0.16005 0.03036,1.208221 c 0.0293,1.166008 0.03975,1.213109 0.29864,1.348074 0.306796,0.159938 0.783731,0.10063 1.156878,-0.143867 z m 2.062262,-0.526616 V 74.85359 h 0.321914 c 0.214606,0 0.321913,0.05365 0.321913,0.160958 0,0.199074 -0.002,0.199145 0.42331,-0.01313 0.423911,-0.211475 1.213844,-0.135777 1.61548,0.154807 0.72931,0.527666 0.93278,2.029027 0.39853,2.940656 -0.435446,0.743033 -1.376596,1.024361 -2.249534,0.672425 -0.169024,-0.06813 -0.187786,0.0059 -0.187786,0.740559 v 0.816268 h -0.321913 -0.321914 z m 2.299829,0.373497 c 0.261723,-0.257431 0.321417,-0.414256 0.354627,-0.931691 0.0551,-0.85843 -0.189311,-1.323254 -0.796917,-1.515555 -0.393917,-0.124675 -0.497183,-0.119646 -0.834995,0.04065 l -0.385485,0.182928 0.03022,1.190398 c 0.02909,1.147235 0.03995,1.195445 0.298472,1.329641 0.38179,0.198167 0.962447,0.06918 1.334088,-0.296379 z M 53.826635,76.974253 c -0.367685,-1.077839 -0.667596,-1.998979 -0.666469,-2.046982 0.0011,-0.048 0.156668,-0.07215 0.34565,-0.05365 0.338637,0.03315 0.348962,0.05105 0.714968,1.240798 0.204251,0.66395 0.403333,1.207177 0.442405,1.207177 0.03907,0 0.285316,-0.539406 0.547211,-1.198685 0.261896,-0.659275 0.523854,-1.213945 0.582129,-1.232596 0.05828,-0.01865 0.341267,0.544901 0.628872,1.252337 0.287604,0.707439 0.537174,1.286251 0.554601,1.286251 0.01742,0 0.138786,-0.325939 0.26969,-0.724306 0.580032,-1.765158 0.62524,-1.851006 0.974783,-1.851006 0.376206,0 0.42526,-0.248665 -0.443541,2.248368 -0.337851,0.971026 -0.657278,1.778978 -0.709839,1.79545 -0.05256,0.01648 -0.332319,-0.536568 -0.621688,-1.228977 -0.289368,-0.692408 -0.556481,-1.294262 -0.593586,-1.337449 -0.0371,-0.0432 -0.31297,0.509958 -0.613032,1.229215 -0.300064,0.719257 -0.590134,1.322595 -0.644602,1.340749 -0.05447,0.01815 -0.399867,-0.848854 -0.767552,-1.926694 z m 6.149664,1.794815 c -0.664736,-0.36096 -0.941402,-0.753649 -1.067986,-1.515865 -0.150512,-0.906267 0.305884,-1.853976 1.057131,-2.195149 0.563736,-0.256021 1.073329,-0.25314 1.651642,0.0093 0.362665,0.164597 0.506739,0.31322 0.677197,0.698563 0.119085,0.269216 0.201503,0.644867 0.183152,0.834781 l -0.03337,0.345299 -1.43456,0.03002 -1.434558,0.03001 0.06833,0.341656 c 0.159704,0.798528 0.972951,1.196895 1.782297,0.87306 0.380971,-0.152435 0.464134,-0.156992 0.544631,-0.02985 0.159303,0.251594 0.111533,0.37776 -0.196797,0.519773 -0.492453,0.22682 -1.430754,0.257282 -1.797113,0.05835 z m 1.818837,-2.547343 c -0.194287,-0.64068 -0.861906,-0.942995 -1.496709,-0.677758 -0.298245,0.124613 -0.697933,0.617233 -0.697933,0.860215 0,0.03245 0.510267,0.05898 1.13393,0.05898 1.126084,0 1.133422,-0.0015 1.060712,-0.241436 z m 1.453715,-0.134129 v -2.843575 h 0.321915 0.321914 v 0.952445 0.952443 l 0.457214,-0.164413 c 1.389721,-0.499743 2.568708,0.796886 2.21676,2.437952 -0.253133,1.180324 -1.436544,1.844943 -2.395038,1.345084 -0.277978,-0.144963 -0.330481,-0.144892 -0.491319,5.06e-4 -0.414146,0.374815 -0.431446,0.267336 -0.431446,-2.68058 z m 2.216996,2.032052 c 0.503033,-0.318107 0.603999,-1.596267 0.172083,-2.178444 -0.311019,-0.419218 -0.907169,-0.5903 -1.375331,-0.394687 l -0.369919,0.154559 v 1.191005 1.191011 l 0.34874,0.152861 c 0.37635,0.164967 0.850933,0.119883 1.224427,-0.116305 z m 2.450754,0.715815 c -0.621618,-0.271041 -0.864154,-1.105179 -0.493248,-1.69644 0.30086,-0.479607 0.803192,-0.715597 1.539347,-0.723172 0.698771,-0.0072 0.782742,-0.142417 0.394726,-0.635701 -0.245734,-0.312404 -0.792982,-0.380938 -1.350173,-0.169094 -0.246387,0.09368 -0.322998,0.08065 -0.436201,-0.07416 -0.191262,-0.261566 -0.176114,-0.309266 0.144608,-0.455395 0.523792,-0.238657 1.189855,-0.268709 1.693404,-0.0764 0.672137,0.256695 0.81459,0.609442 0.81459,2.017118 0,0.815847 0.04243,1.172932 0.157546,1.325095 0.40049,0.529499 -0.04187,0.816601 -0.520589,0.337876 -0.243899,-0.243898 -0.248294,-0.244254 -0.519387,-0.04187 -0.305979,0.228448 -1.096738,0.335095 -1.424623,0.192129 z m 1.314484,-0.654251 c 0.320621,-0.195485 0.34874,-0.257095 0.34874,-0.76402 v -0.551387 l -0.596553,0.04949 c -0.653111,0.05416 -0.951213,0.262083 -1.069202,0.745765 -0.05136,0.210542 -0.01075,0.344742 0.154191,0.509694 0.281281,0.281281 0.712301,0.285165 1.162824,0.01049 z m 17.24922,-10.837584 c -0.236071,-0.04349 -0.760603,-0.135823 -1.165628,-0.205168 -0.994495,-0.170285 -1.392265,-0.395909 -2.222864,-1.260864 -1.229069,-1.279915 -1.688301,-2.36811 -1.785291,-4.23043 -0.07171,-1.376971 0.0808,-2.349647 0.528304,-3.369238 0.629446,-1.434129 1.44239,-2.273072 2.606689,-2.690034 0.826391,-0.295949 3.689707,-0.26987 4.716797,0.04294 1.58934,0.484082 2.676297,2.171206 2.949842,4.578626 0.161923,1.425002 0.316613,1.338163 -2.385661,1.339268 -1.252048,5.06e-4 -2.529955,0.03138 -2.839796,0.0686 -0.555606,0.06674 -0.563347,0.07267 -0.563347,0.431735 0,1.158495 1.069551,1.967787 2.41435,1.826829 0.295087,-0.03092 1.013346,-0.189134 1.596124,-0.351561 0.772655,-0.215353 1.106838,-0.265541 1.234006,-0.185326 0.218051,0.137536 0.57681,2.450085 0.425387,2.742063 -0.222625,0.429266 -1.840496,1.004437 -3.415095,1.214092 -1.223873,0.162959 -1.444597,0.168065 -2.093817,0.04846 z m 1.33525,-8.397949 c -0.0035,-0.250824 -0.0637,-0.62505 -0.134127,-0.831612 -0.10678,-0.313125 -0.179674,-0.375565 -0.438408,-0.375565 -0.410653,0 -0.669608,0.376609 -0.756263,1.09987 l -0.0675,0.56335 h 0.701178 0.701173 l -0.006,-0.456043 z m -31.380548,8.252742 c -1.320472,-0.43686 -1.870805,-1.141193 -2.114015,-2.705578 -0.173466,-1.115783 -0.02189,-1.813743 0.561763,-2.586788 0.933688,-1.236661 1.647941,-1.518845 4.082819,-1.613012 1.666392,-0.06445 1.67197,-0.0655 1.625506,-0.30856 -0.02564,-0.134145 -0.166465,-0.356356 -0.31294,-0.493806 -0.26114,-0.245055 -0.31137,-0.2501 -2.583827,-0.259585 -2.176594,-0.0091 -2.322396,-0.02215 -2.397867,-0.214607 -0.04419,-0.112716 -0.08375,-0.788295 -0.0879,-1.50129 -0.0088,-1.512291 -0.07966,-1.421273 1.333765,-1.712953 1.886682,-0.389337 5.403324,-0.292576 6.676296,0.183704 0.818924,0.306402 1.741588,1.213078 2.001842,1.967164 0.262108,0.759452 0.391496,2.57531 0.409123,5.741738 0.01063,1.907423 -0.02271,2.808132 -0.109972,2.971168 -0.171968,0.321326 -0.656412,0.376629 -2.936315,0.335201 -1.314217,-0.02388 -1.939952,-0.07499 -2.030619,-0.165849 -0.07207,-0.07223 -0.134728,-0.296369 -0.13922,-0.498084 l -0.0082,-0.36676 -0.445379,0.409988 c -0.722981,0.66553 -1.25742,0.886667 -2.237238,0.925708 -0.517155,0.02058 -1.029078,-0.02226 -1.287655,-0.107799 z m 3.735653,-3.227108 c 0.516885,-0.479028 0.523511,-1.420644 0.01313,-1.864044 -0.335143,-0.291152 -0.626539,-0.242693 -0.996963,0.165798 -0.22113,0.243859 -0.24741,0.362085 -0.210239,0.945844 0.02337,0.366936 0.106785,0.744636 0.18538,0.839338 0.208849,0.251646 0.687919,0.210356 1.008702,-0.08694 z m 9.659062,3.170041 c -1.416441,-0.526758 -2.446018,-1.718421 -2.889281,-3.344143 -0.246196,-0.902951 -0.279334,-3.753304 -0.05298,-4.556446 0.382734,-1.35796 1.334113,-2.641697 2.387685,-3.221796 0.525429,-0.289302 0.678462,-0.318806 1.845519,-0.355835 1.381082,-0.0438 2.339336,0.09247 2.992254,0.425562 0.31144,0.158887 0.419076,0.175414 0.457888,0.07032 0.02787,-0.07557 0.06317,-1.030702 0.07837,-2.122528 l 0.02763,-1.98514 0.536527,-0.05365 c 0.968048,-0.0968 4.86171,0.04299 4.997757,0.179419 0.09527,0.09555 0.100102,1.841403 0.02013,7.265658 -0.09637,6.535208 -0.121329,7.164375 -0.294671,7.428932 L 79.747169,67.16074 77.349264,67.096 c -2.855588,-0.0771 -3.035131,-0.132025 -3.053163,-0.934088 -0.008,-0.35957 -0.01297,-0.364138 -0.115103,-0.107306 -0.153439,0.385937 -0.625339,0.849836 -1.060091,1.042129 -0.237597,0.105091 -0.809195,0.181701 -1.555918,0.208545 -0.973458,0.03498 -1.277614,0.0063 -1.735238,-0.163928 z M 73.996369,63.364 c 0.279415,-0.538427 0.463733,-2.404752 0.31876,-3.227752 -0.197544,-1.121492 -0.78656,-1.800964 -1.220657,-1.408112 -0.402504,0.364265 -0.541261,1.233331 -0.483449,3.027912 0.02956,0.918281 0.08806,1.751278 0.129937,1.851106 0.180672,0.430645 0.98676,0.27452 1.255409,-0.243154 z m -40.028405,3.708201 c -2.066677,-0.579242 -3.399027,-2.011268 -3.991755,-4.290384 -0.277584,-1.067344 -0.337971,-3.336057 -0.112817,-4.238531 0.350733,-1.40584 1.482241,-2.964487 2.680513,-3.692402 1.369554,-0.831958 3.542048,-1.297907 5.649314,-1.21164 1.28785,0.05273 3.540442,0.343562 3.999021,0.516325 0.355862,0.134063 0.454626,0.513491 0.482681,1.854352 0.02041,0.975377 -0.0088,1.25116 -0.156558,1.477579 l -0.181649,0.278381 -1.106006,-0.20721 c -0.792622,-0.148491 -1.455659,-0.19798 -2.340011,-0.174645 -1.126511,0.02971 -1.278416,0.05867 -1.743881,0.332276 -0.851228,0.500371 -0.992386,0.892735 -0.992386,2.758467 0,1.655252 0.108661,2.209233 0.522914,2.665986 0.523072,0.576733 1.371033,0.736002 1.740679,0.326943 0.182663,-0.202137 0.204414,-0.404811 0.204414,-1.904656 v -1.67845 l 2.253397,-0.02636 c 1.265856,-0.0148 2.322117,0.01765 2.410204,0.074 0.120492,0.07713 0.165897,0.418716 0.196063,1.474989 0.03777,1.322245 -0.116375,5.251466 -0.209664,5.344755 -0.02491,0.02489 -0.984778,0.05186 -2.133038,0.05987 l -2.087743,0.01459 -0.177272,-0.680988 c -0.0975,-0.374539 -0.182002,-0.605172 -0.187783,-0.512516 -0.02034,0.325888 -0.749096,1.033692 -1.320326,1.282367 -0.736446,0.320591 -2.520452,0.402981 -3.398311,0.156932 z m 12.380407,-0.0076 c -0.177053,-0.02524 -0.515063,-0.07111 -0.751133,-0.101872 -0.738136,-0.09621 -0.720809,-0.05114 -0.871658,-2.267065 -0.148085,-2.175301 -0.195284,-8.272347 -0.06561,-8.475846 0.105467,-0.165515 0.359715,-0.179598 2.901057,-0.160724 l 2.178394,0.01617 0.155482,0.372122 c 0.08551,0.204667 0.155481,0.621659 0.155481,0.926656 v 0.554533 l 0.55056,-0.559313 c 0.881474,-0.895484 1.561938,-1.292387 2.45192,-1.43014 0.644796,-0.0998 0.784882,-0.09409 0.866798,0.03539 0.128635,0.203304 0.122379,2.51388 -0.0096,3.53062 -0.139858,1.077773 -0.206983,1.13327 -1.173532,0.97024 -1.278814,-0.215699 -2.130962,0.04082 -2.57946,0.77638 -0.197534,0.323982 -0.213256,0.544709 -0.213628,2.999174 -2.14e-4,1.457205 -0.04086,2.674465 -0.09032,2.705033 -0.120524,0.07449 -3.09736,0.166768 -3.504784,0.108645 z M 94.395219,66.86674 c -0.486229,-0.130606 -0.910474,-0.263878 -0.942762,-0.296161 -0.116236,-0.11624 -0.4891,-2.588822 -0.403331,-2.674599 0.0483,-0.04831 0.393076,0.0072 0.766162,0.123308 0.735642,0.228958 2.062608,0.284191 2.532808,0.105425 0.601976,-0.228874 0.429839,-0.805439 -0.358683,-1.201399 -0.272536,-0.136851 -0.53414,-0.309184 -0.581337,-0.382956 -0.04719,-0.07377 -0.224312,-0.205761 -0.393602,-0.293301 -0.169291,-0.08754 -0.569706,-0.421083 -0.88983,-0.741204 -0.472907,-0.472903 -0.619249,-0.709644 -0.780483,-1.262617 -0.30056,-1.030788 -0.263395,-1.851609 0.115355,-2.547495 0.693589,-1.274353 2.108937,-1.944036 4.556035,-2.155728 1.340517,-0.115965 2.979899,-0.123225 3.479739,-0.01541 0.37701,0.08133 0.42906,0.23697 0.53022,1.585332 l 0.0736,0.981032 -0.34313,0.11962 c -0.18872,0.06579 -0.75711,0.151437 -1.26308,0.19033 -0.812091,0.06243 -0.954624,0.105395 -1.215761,0.366536 -0.476581,0.476579 -0.424623,0.55756 0.746671,1.163777 1.14273,0.591434 1.7313,1.119956 2.18005,1.957693 0.3144,0.586893 0.36317,0.779447 0.36204,1.429395 -0.002,0.950208 -0.21668,1.419969 -1.00744,2.200968 -0.7175,0.708631 -1.857998,1.331547 -2.730981,1.491607 -1.109236,0.203373 -3.41796,0.12829 -4.43224,-0.144151 z"
       id="path836" />
  </g>
</svg>
