<?xml version="1.0" encoding="UTF-8" standalone="no"?>
<!-- Created with Inkscape (http://www.inkscape.org/) -->

<svg
   width="1498.3976"
   height="244"
   viewBox="0 0 396.45102 64.558336"
   version="1.1"
   id="svg5"
   xmlns="http://www.w3.org/2000/svg"
   xmlns:svg="http://www.w3.org/2000/svg">
  <defs
     id="defs2" />
  <g
     id="g4"
     transform="translate(-1.2788485)">
    <g
       id="g2"
       transform="translate(1.2788811)">
      <path
         style="fill:#0d6cfa;fill-opacity:1;stroke-width:0.135533"
         d="m 223.90945,38.549448 c -0.29818,-0.05493 -0.9607,-0.171567 -1.47227,-0.259133 -1.25613,-0.21508 -1.75854,-0.500063 -2.80765,-1.592566 -1.55241,-1.61663 -2.13245,-2.991101 -2.25496,-5.343354 -0.0906,-1.739217 0.10207,-2.96778 0.66729,-4.255602 0.79504,-1.811413 1.82185,-2.871062 3.29245,-3.397715 1.04379,-0.373806 4.66038,-0.340865 5.95767,0.05424 2.00745,0.611433 3.38036,2.742397 3.72587,5.783152 0.20453,1.799884 0.39991,1.690201 -3.01327,1.691598 -1.58143,6.35e-4 -3.19552,0.03962 -3.58688,0.08664 -0.70177,0.0843 -0.71155,0.09179 -0.71155,0.545315 0,1.463266 1.35093,2.485464 3.04951,2.307424 0.37272,-0.03905 1.27993,-0.238905 2.01603,-0.444047 0.97592,-0.272019 1.39802,-0.335401 1.55864,-0.23408 0.2754,0.173724 0.72855,3.094641 0.53729,3.463432 -0.28119,0.542195 -2.32468,1.268681 -4.31352,1.53349 -1.54584,0.20582 -1.82463,0.212293 -2.64465,0.06119 z m 1.68652,-10.607243 c -0.004,-0.316809 -0.0805,-0.789485 -0.16941,-1.050392 -0.13485,-0.395499 -0.22694,-0.474362 -0.55374,-0.474362 -0.51869,0 -0.84576,0.475684 -0.95522,1.389218 l -0.0853,0.71155 h 0.88564 0.88564 l -0.007,-0.576014 z m -39.636,10.423833 c -1.66785,-0.551785 -2.36296,-1.441411 -2.67016,-3.417347 -0.21909,-1.409318 -0.0276,-2.290894 0.70956,-3.267307 1.17931,-1.561996 2.08147,-1.918416 5.1569,-2.037356 2.10478,-0.08142 2.11183,-0.08274 2.05314,-0.389733 -0.0324,-0.169439 -0.21026,-0.450107 -0.39527,-0.623717 -0.32984,-0.309524 -0.39328,-0.315895 -3.26357,-0.327874 -2.7492,-0.01139 -2.93336,-0.02787 -3.02868,-0.27106 -0.0558,-0.142378 -0.10579,-0.995673 -0.11103,-1.89624 -0.0111,-1.910139 -0.10064,-1.795176 1.68464,-2.163587 2.38302,-0.491765 6.82481,-0.369547 8.43267,0.232042 1.03436,0.387009 2.19975,1.53221 2.52848,2.484676 0.33106,0.959244 0.49448,3.252811 0.51675,7.25225 0.0135,2.409219 -0.0288,3.546883 -0.13891,3.752808 -0.2172,0.405859 -0.82909,0.475711 -3.70878,0.423384 -1.65996,-0.03018 -2.45031,-0.0947 -2.56483,-0.209476 -0.091,-0.09122 -0.17015,-0.374335 -0.17585,-0.629117 l -0.0105,-0.463245 -0.56254,0.517847 c -0.91318,0.840613 -1.58822,1.119926 -2.8258,1.169238 -0.65321,0.02607 -1.29981,-0.02817 -1.62641,-0.136144 z m 4.71842,-4.076079 c 0.65286,-0.60505 0.66123,-1.794382 0.0168,-2.354429 -0.42332,-0.367746 -0.79137,-0.306539 -1.25924,0.209416 -0.27931,0.308014 -0.3125,0.457344 -0.26555,1.194675 0.0294,0.463467 0.13486,0.94053 0.23414,1.060147 0.26378,0.317846 0.86889,0.265696 1.27407,-0.109803 z m 12.20012,4.004 c -1.78907,-0.665334 -3.08951,-2.170495 -3.64938,-4.223905 -0.31096,-1.140496 -0.35282,-4.740705 -0.0669,-5.755135 0.48342,-1.715203 1.68509,-3.336661 3.01583,-4.069372 0.66366,-0.365408 0.85695,-0.402676 2.33103,-0.449444 1.74441,-0.05532 2.95476,0.116785 3.77944,0.537517 0.39338,0.200666 0.52933,0.221553 0.57835,0.08882 0.0352,-0.09545 0.0798,-1.301856 0.099,-2.680915 l 0.0349,-2.507382 0.67767,-0.06779 c 1.22272,-0.122269 6.14071,0.0543 6.31255,0.226618 0.12035,0.120681 0.12643,2.325831 0.0255,9.177073 -0.12173,8.254462 -0.15323,9.049147 -0.37219,9.383304 l -0.23921,0.36507 -3.02873,-0.08178 c -3.60683,-0.09737 -3.8336,-0.166741 -3.85638,-1.179823 -0.0102,-0.454164 -0.0165,-0.459933 -0.14537,-0.135545 -0.19381,0.487468 -0.78986,1.073407 -1.33898,1.316288 -0.3001,0.132728 -1.02207,0.229495 -1.96524,0.263419 -1.22955,0.0442 -1.61372,0.0081 -2.19174,-0.207049 z m 5.26279,-4.771081 c 0.35292,-0.680074 0.58573,-3.037383 0.40262,-4.076893 -0.24952,-1.416531 -0.99349,-2.274757 -1.54178,-1.778553 -0.5084,0.460095 -0.68366,1.557788 -0.61064,3.82448 0.0373,1.159858 0.11122,2.211997 0.16411,2.338087 0.2282,0.543936 1.24635,0.346738 1.58567,-0.307121 z m -50.5589,4.683736 c -2.61036,-0.731625 -4.29322,-2.540383 -5.04188,-5.419077 -0.35061,-1.348138 -0.42689,-4.213692 -0.1425,-5.353586 0.443,-1.775682 1.87218,-3.744369 3.38569,-4.66378 1.72985,-1.050826 4.47387,-1.639358 7.13551,-1.530394 1.62665,0.06662 4.47184,0.433945 5.05106,0.652156 0.44948,0.169319 0.57423,0.648579 0.60967,2.342188 0.0258,1.231976 -0.0111,1.580308 -0.19773,1.866296 l -0.22944,0.351614 -1.39696,-0.261711 c -1.00115,-0.187539 -1.83861,-0.250052 -2.95561,-0.220594 -1.42287,0.03752 -1.61474,0.07411 -2.20266,0.41969 -1.07516,0.632006 -1.25346,1.127592 -1.25346,3.484151 0,2.090708 0.13726,2.790427 0.66048,3.36734 0.66068,0.728458 1.73172,0.929627 2.19861,0.412955 0.23072,-0.255327 0.2582,-0.511307 0.2582,-2.405725 V 29.12813 l 2.84622,-0.03329 c 1.59887,-0.01888 2.93301,0.02218 3.04426,0.09347 0.15218,0.09743 0.20954,0.528869 0.24766,1.863024 0.0477,1.670093 -0.14699,6.632995 -0.26483,6.750826 -0.0315,0.03144 -1.24385,0.06551 -2.69419,0.07564 l -2.63697,0.01828 -0.22392,-0.860143 c -0.12314,-0.473071 -0.22989,-0.764377 -0.2372,-0.647343 -0.0258,0.411621 -0.94616,1.305628 -1.66767,1.619725 -0.93019,0.40493 -3.18352,0.508997 -4.29232,0.198208 z m 15.63739,-0.0096 c -0.22362,-0.03189 -0.65056,-0.08981 -0.94874,-0.128653 -0.93232,-0.12152 -0.91043,-0.06458 -1.10097,-2.863473 -0.18703,-2.74757 -0.24666,-10.448599 -0.0829,-10.705634 0.13321,-0.209056 0.45435,-0.226857 3.66426,-0.203003 l 2.75147,0.02038 0.19638,0.470021 c 0.10801,0.258503 0.19638,0.785202 0.19638,1.170437 v 0.700414 l 0.6954,-0.706453 c 1.11337,-1.131065 1.97285,-1.632384 3.09696,-1.806375 0.81443,-0.126045 0.99137,-0.118853 1.09483,0.04471 0.16246,0.256796 0.15458,3.175219 -0.012,4.459438 -0.17667,1.361309 -0.26144,1.431407 -1.48226,1.225489 -1.61524,-0.272439 -2.69157,0.05154 -3.25806,0.980626 -0.24951,0.409212 -0.26935,0.688007 -0.26983,3.788182 -2.7e-4,1.84056 -0.0516,3.378051 -0.11406,3.416658 -0.15223,0.09407 -3.91219,0.210645 -4.4268,0.137224 z m 60.6868,-0.249903 c -0.61415,-0.164944 -1.15,-0.333298 -1.19079,-0.374072 -0.14681,-0.146813 -0.61776,-3.269878 -0.50943,-3.378221 0.061,-0.06101 0.49648,0.009 0.96772,0.155743 0.92917,0.289191 2.60523,0.358956 3.19913,0.133148 0.76034,-0.289071 0.54292,-1.017331 -0.45305,-1.517457 -0.34423,-0.172855 -0.67466,-0.390525 -0.73427,-0.483701 -0.0596,-0.09317 -0.28332,-0.259882 -0.49715,-0.370464 -0.21382,-0.110581 -0.71958,-0.531859 -1.12392,-0.936195 -0.59732,-0.597313 -0.78216,-0.896336 -0.98581,-1.594781 -0.37963,-1.301963 -0.33269,-2.338723 0.14571,-3.21768 0.87605,-1.609602 2.66374,-2.455463 5.75461,-2.722846 1.69318,-0.146483 3.76384,-0.155653 4.39517,-0.01948 0.4762,0.10273 0.54194,0.29932 0.66971,2.002396 l 0.093,1.239117 -0.4334,0.151099 c -0.23836,0.0831 -0.95628,0.191285 -1.59536,0.240403 -1.02574,0.07885 -1.20576,0.133117 -1.5356,0.462963 -0.60196,0.601954 -0.53633,0.704237 0.9431,1.469937 1.44336,0.747026 2.18676,1.414589 2.75357,2.472712 0.39711,0.74129 0.45871,0.984501 0.45728,1.805434 -0.003,1.200184 -0.27366,1.793528 -1.27247,2.779989 -0.90626,0.895056 -2.34679,1.681843 -3.44943,1.884013 -1.40105,0.256885 -4.31715,0.162037 -5.59826,-0.182085 z"
         id="path836" />
      <path
         style="fill:#0d6cfa;fill-opacity:1;stroke-width:0.135533"
         d="m 204.86695,48.319602 v -3.456114 h 0.4066 c 0.27106,0 0.4066,0.06776 0.4066,0.203303 0,0.250711 0.0135,0.250741 0.49276,6.41e-4 0.8909,-0.464641 2.1573,-0.03566 2.62997,0.890818 0.24256,0.475475 0.28425,0.752924 0.24454,1.627446 -0.0513,1.130714 -0.23774,1.526531 -0.97977,2.080674 -0.39706,0.296503 -1.48751,0.384828 -2.08256,0.16866 -0.29914,-0.108664 -0.30495,-0.09122 -0.30495,0.914856 v 1.025641 h -0.4066 -0.4066 v -3.456114 z m 2.68103,0.665153 c 0.70437,-0.461521 0.90966,-2.026771 0.3732,-2.845519 -0.30494,-0.465382 -1.15407,-0.659475 -1.76619,-0.403714 l -0.48381,0.202164 0.0383,1.526073 c 0.037,1.472757 0.0502,1.532249 0.3772,1.702719 0.38751,0.202014 0.98991,0.127094 1.46122,-0.181726 z m 2.60479,-0.665153 v -3.456114 h 0.4066 c 0.27106,0 0.4066,0.06776 0.4066,0.203303 0,0.251461 -0.003,0.251521 0.53467,-0.01678 0.53543,-0.267104 1.53318,-0.171506 2.04047,0.195541 0.92118,0.666485 1.17818,2.562814 0.50338,3.71427 -0.55,0.938509 -1.73874,1.293845 -2.84133,0.849325 -0.2135,-0.08607 -0.2372,0.0075 -0.2372,0.935383 v 1.031009 h -0.40659 -0.4066 z m 2.90485,0.471752 c 0.33058,-0.325155 0.40598,-0.523234 0.44792,-1.176793 0.0696,-1.084265 -0.23911,-1.671373 -1.00656,-1.914263 -0.49755,-0.157482 -0.62798,-0.151128 -1.05466,0.05134 l -0.4869,0.231053 0.0382,1.503564 c 0.0367,1.449046 0.0505,1.509938 0.37699,1.679437 0.48223,0.250292 1.21565,0.08739 1.68505,-0.374348 z m -30.39222,-1.24931 c -0.46441,-1.361393 -0.84322,-2.524862 -0.84179,-2.585494 0.001,-0.06063 0.19787,-0.09113 0.43657,-0.06779 0.42773,0.04187 0.44077,0.06449 0.90306,1.567222 0.258,0.838617 0.50944,1.524754 0.5588,1.524754 0.0493,0 0.36037,-0.681309 0.69116,-1.514029 0.3308,-0.832713 0.66167,-1.533304 0.73527,-1.556862 0.0736,-0.02367 0.43105,0.688253 0.79432,1.581796 0.36326,0.893551 0.67849,1.624631 0.7005,1.624631 0.0219,0 0.17532,-0.411685 0.34064,-0.914852 0.73262,-2.229526 0.78972,-2.337959 1.23122,-2.337959 0.47518,0 0.53714,-0.314082 -0.56022,2.839859 -0.42673,1.22648 -0.83019,2.246985 -0.89658,2.267788 -0.0664,0.02098 -0.41974,-0.677725 -0.78524,-1.552291 -0.36549,-0.874564 -0.70288,-1.634752 -0.74974,-1.689297 -0.0469,-0.05457 -0.39531,0.644113 -0.77431,1.552589 -0.379,0.908478 -0.74538,1.670539 -0.81418,1.693468 -0.0688,0.02307 -0.50506,-1.072167 -0.96948,-2.43356 z m 7.76749,2.266986 c -0.83961,-0.455921 -1.18906,-0.951914 -1.34894,-1.914653 -0.19009,-1.144682 0.38635,-2.34171 1.33523,-2.772637 0.71204,-0.323375 1.3557,-0.319737 2.08615,0.01169 0.45807,0.207888 0.64005,0.395622 0.85535,0.882341 0.15041,0.340037 0.25452,0.814517 0.23132,1.054389 l -0.0421,0.436139 -1.81196,0.03791 -1.81195,0.03791 0.0863,0.431536 c 0.20172,1.008601 1.22891,1.511769 2.25118,1.10274 0.48119,-0.192515 0.58623,-0.198298 0.68791,-0.0377 0.2012,0.31778 0.14088,0.477138 -0.24856,0.656511 -0.622,0.286493 -1.80715,0.324966 -2.26989,0.07369 z m 2.29733,-3.217485 c -0.24541,-0.809228 -1.08865,-1.191076 -1.89045,-0.856062 -0.37671,0.157392 -0.88154,0.779614 -0.88154,1.086518 0,0.041 0.6445,0.0745 1.43223,0.0745 1.42233,0 1.4316,-0.0019 1.33976,-0.304954 z m 1.83615,-0.169409 v -3.59165 h 0.40661 0.4066 v 1.20301 1.203006 l 0.57749,-0.207678 c 1.75533,-0.631215 3.24448,1.006528 2.79994,3.079318 -0.31973,1.490836 -1.81446,2.330302 -3.02511,1.69894 -0.35111,-0.183104 -0.41743,-0.183014 -0.62058,6.38e-4 -0.5231,0.473422 -0.54495,0.337667 -0.54495,-3.385773 z m 2.80024,2.566635 c 0.63536,-0.401795 0.76289,-2.016208 0.21735,-2.75154 -0.39284,-0.52951 -1.14582,-0.7456 -1.73715,-0.498526 l -0.46723,0.195211 v 1.504328 1.504337 l 0.44048,0.193084 c 0.47536,0.208367 1.0748,0.151428 1.54655,-0.146903 z m 3.09548,0.904127 c -0.78515,-0.342345 -1.09149,-1.395922 -0.62301,-2.142732 0.38001,-0.605778 1.0145,-0.903852 1.94432,-0.91342 0.88259,-0.009 0.98866,-0.179868 0.49856,-0.802938 -0.31037,-0.394591 -1.00159,-0.481156 -1.70537,-0.213581 -0.3112,0.118313 -0.40797,0.101861 -0.55095,-0.09368 -0.24157,-0.330379 -0.22245,-0.390626 0.18265,-0.575199 0.66159,-0.301442 1.50288,-0.339399 2.1389,-0.0965 0.84896,0.324227 1.02889,0.769772 1.02889,2.547774 0,1.030474 0.0536,1.481498 0.19899,1.673692 0.50584,0.668797 -0.0529,1.031427 -0.65755,0.426761 -0.30806,-0.308058 -0.31361,-0.308508 -0.65602,-0.05289 -0.38648,0.288561 -1.38527,0.423249 -1.79941,0.24268 z m 1.66029,-0.826369 c 0.40498,-0.246906 0.44049,-0.32473 0.44049,-0.965013 v -0.696443 l -0.75349,0.06251 c -0.82493,0.06842 -1.20146,0.331029 -1.35048,0.941956 -0.0649,0.265935 -0.0135,0.435437 0.19476,0.643783 0.35528,0.355279 0.89969,0.360185 1.46873,0.01319 z"
         id="path1" />
    </g>
    <g
       id="path1867"
       transform="matrix(6.2798252,0,0,3.5178995,455.63068,-574.105)"
       style="fill:#0d6cfa;fill-opacity:1">
      <path
         style="color:#000000;fill:#0d6cfa;fill-opacity:1;stroke-width:0.364658;stroke-linecap:square;stroke-linejoin:bevel;-inkscape-stroke:none"
         d="M -11.065164,172.37138 H -31.580358"
         id="path7112" />
      <path
         style="color:#000000;fill:#0d6cfa;fill-opacity:1;stroke-linecap:square;stroke-linejoin:bevel;-inkscape-stroke:none"
         d="m -30.798311,172.18945 -1.602238,0.17645 1.602238,0.18683 h 0.183594 18.584025 0.183594 l 1.631045,-0.20411 -1.631045,-0.15917 h -0.183594 -18.584025 z"
         id="path7114" />
    </g>
    <g
       id="g3"
       transform="matrix(6.2798252,0,0,3.5178995,211.00286,-574.105)"
       style="fill:#0d6cfa;fill-opacity:1">
      <path
         style="color:#000000;fill:#0d6cfa;fill-opacity:1;stroke-width:0.364658;stroke-linecap:square;stroke-linejoin:bevel;-inkscape-stroke:none"
         d="M -11.065164,172.37138 H -31.580358"
         id="path2" />
      <path
         style="color:#000000;fill:#0d6cfa;fill-opacity:1;stroke-linecap:square;stroke-linejoin:bevel;-inkscape-stroke:none"
         d="m -30.798311,172.18945 -1.602238,0.17645 1.602238,0.18683 h 0.183594 18.584025 0.183594 l 1.631045,-0.20411 -1.631045,-0.15917 h -0.183594 -18.584025 z"
         id="path3" />
    </g>
  </g>
</svg>
