<?xml version="1.0" encoding="UTF-8" standalone="no"?>
<!-- Created with Inkscape (http://www.inkscape.org/) -->

<svg
   width="1500"
   height="244"
   viewBox="0 0 396.875 64.558334"
   version="1.1"
   id="svg5"
   xml:space="preserve"
   xmlns="http://www.w3.org/2000/svg"
   xmlns:svg="http://www.w3.org/2000/svg"><defs
     id="defs2" /><g
     id="g5"><g
       id="g4"><path
         style="fill:#dc3545;fill-opacity:1;stroke-width:0.135533"
         d="m 205.29093,48.3196 v -3.45611 h 0.4066 c 0.27106,0 0.4066,0.0678 0.4066,0.2033 0,0.25071 0.0135,0.25074 0.49276,6.4e-4 0.8909,-0.46464 2.1573,-0.0357 2.62997,0.89082 0.24256,0.47547 0.28425,0.75292 0.24454,1.62745 -0.0513,1.13071 -0.23774,1.52653 -0.97977,2.08067 -0.39706,0.2965 -1.48751,0.38483 -2.08256,0.16866 -0.29914,-0.10866 -0.30495,-0.0912 -0.30495,0.91486 v 1.02564 h -0.4066 -0.4066 v -3.45612 z m 2.68103,0.66516 c 0.70437,-0.46153 0.90965,-2.02678 0.3732,-2.84552 -0.30494,-0.46539 -1.15407,-0.65948 -1.76619,-0.40372 l -0.48381,0.20217 0.0383,1.52607 c 0.037,1.47276 0.0502,1.53225 0.3772,1.70272 0.38751,0.20201 0.98991,0.12709 1.46122,-0.18173 z m 2.60479,-0.66516 v -3.45611 h 0.4066 c 0.27106,0 0.4066,0.0678 0.4066,0.2033 0,0.25146 -0.003,0.25152 0.53467,-0.0168 0.53543,-0.26711 1.53318,-0.17151 2.04047,0.19554 0.92118,0.66648 1.17817,2.56281 0.50338,3.71427 -0.55,0.93851 -1.73875,1.29384 -2.84134,0.84932 -0.21349,-0.0861 -0.23719,0.007 -0.23719,0.93539 v 1.03101 h -0.40659 -0.4066 z m 2.90485,0.47175 c 0.33058,-0.32515 0.40598,-0.52323 0.44792,-1.17679 0.0696,-1.08426 -0.23911,-1.67137 -1.00656,-1.91426 -0.49755,-0.15748 -0.62798,-0.15113 -1.05466,0.0513 l -0.4869,0.23106 0.0382,1.50356 c 0.0367,1.44905 0.0505,1.50994 0.37699,1.67944 0.48223,0.25029 1.21564,0.0874 1.68505,-0.37435 z m -30.39222,-1.24931 c -0.46441,-1.36139 -0.84322,-2.52486 -0.8418,-2.58549 0.001,-0.0606 0.19788,-0.0911 0.43658,-0.0678 0.42773,0.0419 0.44077,0.0645 0.90306,1.56722 0.258,0.83862 0.50944,1.52476 0.55879,1.52476 0.0493,0 0.36038,-0.68131 0.69117,-1.51403 0.3308,-0.83271 0.66167,-1.5333 0.73527,-1.55686 0.0736,-0.0237 0.43105,0.68825 0.79432,1.58179 0.36326,0.89356 0.67849,1.62464 0.7005,1.62464 0.0219,0 0.17532,-0.41169 0.34064,-0.91486 0.73262,-2.22952 0.78972,-2.33796 1.23122,-2.33796 0.47518,0 0.53714,-0.31408 -0.56022,2.83986 -0.42673,1.22648 -0.83019,2.24699 -0.89658,2.26779 -0.0664,0.021 -0.41974,-0.67772 -0.78524,-1.55229 -0.36549,-0.87456 -0.70288,-1.63475 -0.74974,-1.6893 -0.0469,-0.0546 -0.39531,0.64412 -0.77431,1.55259 -0.379,0.90848 -0.74538,1.67054 -0.81418,1.69347 -0.0688,0.0231 -0.50506,-1.07217 -0.96948,-2.43356 z m 7.76749,2.26699 c -0.83961,-0.45592 -1.18906,-0.95191 -1.34894,-1.91465 -0.19009,-1.14469 0.38635,-2.34171 1.33523,-2.77264 0.71204,-0.32338 1.3557,-0.31974 2.08615,0.0117 0.45807,0.20788 0.64005,0.39562 0.85535,0.88234 0.15041,0.34003 0.25452,0.81451 0.23132,1.05439 l -0.0421,0.43614 -1.81196,0.0379 -1.81196,0.0379 0.0863,0.43154 c 0.20172,1.0086 1.22891,1.51177 2.25118,1.10274 0.48119,-0.19251 0.58623,-0.1983 0.68791,-0.0377 0.2012,0.31778 0.14087,0.47714 -0.24856,0.65651 -0.622,0.28649 -1.80715,0.32497 -2.26989,0.0737 z m 2.29733,-3.21749 c -0.24541,-0.80922 -1.08865,-1.19107 -1.89046,-0.85606 -0.3767,0.1574 -0.88154,0.77962 -0.88154,1.08652 0,0.041 0.64451,0.0745 1.43224,0.0745 1.42233,0 1.4316,-0.002 1.33976,-0.30495 z m 1.83615,-0.1694 v -3.59165 h 0.40661 0.4066 v 1.20301 1.203 l 0.57749,-0.20768 c 1.75533,-0.63121 3.24447,1.00653 2.79994,3.07932 -0.31973,1.49084 -1.81446,2.3303 -3.02512,1.69894 -0.3511,-0.1831 -0.41742,-0.18301 -0.62057,6.4e-4 -0.5231,0.47342 -0.54495,0.33767 -0.54495,-3.38577 z m 2.80023,2.56663 c 0.63537,-0.40179 0.7629,-2.01621 0.21736,-2.75154 -0.39284,-0.52951 -1.14582,-0.7456 -1.73715,-0.49853 l -0.46723,0.19522 v 1.50432 1.50434 l 0.44048,0.19308 c 0.47536,0.20837 1.07479,0.15143 1.54654,-0.1469 z m 3.09549,0.90413 c -0.78515,-0.34235 -1.09149,-1.39592 -0.62301,-2.14273 0.38001,-0.60578 1.0145,-0.90386 1.94431,-0.91342 0.8826,-0.009 0.98867,-0.17987 0.49857,-0.80294 -0.31038,-0.39459 -1.00159,-0.48116 -1.70537,-0.21358 -0.3112,0.11831 -0.40797,0.10186 -0.55095,-0.0937 -0.24158,-0.33038 -0.22246,-0.39063 0.18265,-0.5752 0.66159,-0.30144 1.50288,-0.3394 2.1389,-0.0965 0.84896,0.32423 1.02889,0.76977 1.02889,2.54777 0,1.03048 0.0536,1.4815 0.19898,1.6737 0.50585,0.66879 -0.0529,1.03142 -0.65754,0.42676 -0.30806,-0.30806 -0.31361,-0.30851 -0.65602,-0.0529 -0.38648,0.28857 -1.38527,0.42325 -1.79941,0.24269 z m 1.66029,-0.82637 c 0.40497,-0.24691 0.44049,-0.32473 0.44049,-0.96501 v -0.69645 l -0.75349,0.0625 c -0.82493,0.0684 -1.20146,0.33102 -1.35048,0.94195 -0.0649,0.26594 -0.0135,0.43544 0.19476,0.64379 0.35528,0.35527 0.89969,0.36018 1.46873,0.0132 z"
         id="path1" /><path
         style="fill:#dc3545;fill-opacity:1;stroke-width:0.264583"
         d="m 141.54682,41.016 c -0.67843,-1.05841 -1.2953,-2.08542 -1.37082,-2.28224 -0.076,-0.19795 -0.51699,-0.35785 -0.98703,-0.35785 -1.68537,0 -3.67117,-0.8037 -4.81703,-1.94956 -1.41823,-1.41823 -1.95062,-3.15967 -1.94642,-6.36669 0.009,-6.81029 2.74303,-9.49581 9.65415,-9.48255 2.09927,0.004 2.96868,0.1284 4.20868,0.6021 2.03153,0.77606 3.61391,2.35012 4.35574,4.33283 0.93727,2.50508 0.68992,7.07337 -0.51164,9.44934 -0.44749,0.88485 -2.14337,2.61566 -2.57188,2.62483 -0.10408,0.002 -0.3545,0.10871 -0.55648,0.23662 -0.29492,0.18677 -0.19701,0.46964 0.49709,1.43614 0.47538,0.66197 0.80338,1.36242 0.72888,1.55656 -0.21052,0.54862 -2.83828,1.76888 -4.21257,1.95621 l -1.23717,0.16864 z m 1.36247,-5.6715 c 0.91034,-0.63763 1.21806,-2.37762 1.10839,-6.26744 -0.12099,-4.29117 -0.47591,-5.25324 -1.93801,-5.25324 -1.5195,0 -1.82839,0.93479 -1.83602,5.55625 -0.007,3.99832 0.28809,5.58513 1.12826,6.07534 0.61159,0.35684 0.8992,0.33609 1.53738,-0.11091 z m 13.1058,3.02927 c -1.17235,-0.27185 -2.3726,-1.4626 -2.70006,-2.67872 -0.15097,-0.56065 -0.23478,-3.47766 -0.19422,-6.75948 l 0.0714,-5.7732 h 2.67147 c 3.8174,0 3.61637,-0.33689 3.46391,5.80487 -0.071,2.86033 -0.019,5.24345 0.12017,5.50606 0.30423,0.57412 1.62329,0.61504 2.08016,0.0645 0.24906,-0.3001 0.30222,-1.69709 0.21529,-5.65768 l -0.11543,-5.2592 1.33847,-0.16085 c 0.73615,-0.0885 2.1994,-0.16189 3.25165,-0.16315 1.84786,-0.002 1.91917,0.0215 2.08848,0.69611 0.26535,1.05724 -0.062,13.3271 -0.36357,13.6287 -0.33098,0.33098 -4.01401,0.61859 -4.94127,0.38586 -0.40306,-0.10116 -0.80539,-0.45308 -0.9486,-0.82974 -0.2786,-0.73278 -0.65951,-0.84901 -0.88203,-0.26914 -0.37695,0.9823 -3.45978,1.8583 -5.15577,1.46502 z m 67.23783,-0.0109 c -1.4663,-0.28965 -2.16222,-0.66384 -3.12126,-1.67828 -1.99881,-2.11428 -2.65251,-6.1967 -1.47623,-9.21918 0.47595,-1.22295 1.88891,-2.83476 3.11881,-3.5577 1.17303,-0.68951 1.47585,-0.74529 4.04605,-0.74529 2.36457,0 2.96205,0.0906 4.01365,0.60863 3.13875,1.54617 4.65463,6.01865 3.41888,10.08709 -0.75563,2.48777 -1.92152,3.81042 -3.85398,4.3722 -1.49837,0.43559 -4.30532,0.49612 -6.14592,0.13253 z m 4.04188,-3.56417 c 0.61894,-1.48133 0.7296,-3.0709 0.38353,-5.5089 -0.33951,-2.39173 -0.49404,-2.66689 -1.66245,-2.96014 -0.65174,-0.16358 -0.76869,-0.084 -1.123,0.76398 -0.69911,1.67319 -0.3757,6.90558 0.516,8.34838 0.0979,0.15846 0.47476,0.28811 0.8374,0.28811 0.50417,0 0.75093,-0.21921 1.04852,-0.93143 z m -51.54133,3.16281 c -2.00212,-0.3867 -3.18893,-1.14999 -4.3153,-2.77534 -0.83226,-1.20095 -1.44496,-3.28284 -1.44496,-4.90979 0,-1.60195 0.91871,-4.31833 1.83507,-5.42582 1.28342,-1.55111 2.35358,-1.91232 5.71706,-1.9297 3.25192,-0.0168 3.78149,0.20206 5.06728,2.09427 0.71029,1.04529 1.47598,3.77856 1.35431,4.83447 l -0.0831,0.72115 -3.77031,0.0734 -3.77031,0.0734 v 0.67159 c 0,0.95367 0.4251,1.62773 1.31762,2.08927 0.99634,0.51523 2.01631,0.50477 3.9786,-0.0408 0.87124,-0.24222 1.64575,-0.37872 1.72115,-0.30333 0.0754,0.0754 0.16443,0.95819 0.19787,1.96176 l 0.0608,1.82469 -1.71979,0.56238 c -2.31595,0.75733 -4.01648,0.88969 -6.14599,0.47838 z m 2.97099,-10.68083 c 0,-0.94803 -0.5024,-1.86931 -1.01939,-1.86931 -0.65549,0 -1.00261,0.45901 -1.1505,1.52136 -0.11918,0.85609 -0.11465,0.85989 1.02509,0.85989 0.95557,0 1.1448,-0.0846 1.1448,-0.51194 z m 9.65729,10.95635 c -0.14552,-0.0534 -0.76161,-0.2248 -1.3691,-0.38081 -0.92473,-0.23748 -1.1293,-0.41207 -1.25677,-1.07258 -0.0837,-0.43391 -0.21699,-1.12673 -0.2961,-1.5396 l -0.14386,-0.75066 2.12643,0.1231 c 3.22732,0.18682 3.74231,-0.67987 1.27617,-2.1477 -2.18361,-1.29967 -3.11489,-2.73074 -3.11489,-4.78654 0,-1.48006 0.84111,-2.72113 2.38125,-3.51354 1.32309,-0.68075 4.86899,-1.21864 7.16992,-1.08764 l 1.42903,0.0814 0.17104,1.5875 c 0.10835,1.0057 0.0692,1.65091 -0.1068,1.76053 -0.15281,0.0952 -0.91446,0.25257 -1.69255,0.34978 -1.32138,0.1651 -2.20815,0.65122 -2.20815,1.2105 0,0.13217 0.50602,0.4964 1.12448,0.8094 1.8305,0.92641 2.56105,1.54287 3.11485,2.6284 0.6204,1.21609 0.67227,2.63664 0.13426,3.67703 -0.54792,1.05957 -2.31768,2.3871 -3.76164,2.82166 -1.09877,0.33069 -4.3003,0.4785 -4.97757,0.22981 z m 15.47812,-0.10878 c -2.10859,-0.42547 -3.47781,-1.63325 -3.98441,-3.51461 -0.15512,-0.57607 -0.24482,-2.28216 -0.19933,-3.7913 l 0.0827,-2.74388 -0.66146,-0.0768 c -0.64256,-0.0746 -0.66364,-0.14289 -0.7379,-2.39188 -0.0758,-2.29429 -0.0707,-2.3151 0.56445,-2.3151 0.74341,0 0.95812,-0.54534 0.96359,-2.4474 l 0.004,-1.25677 h 2.90538 c 2.88236,0 2.9067,0.005 3.07224,0.66485 0.0918,0.36566 0.0868,1.1991 -0.0112,1.85208 -0.17495,1.16665 -0.16513,1.18731 0.56578,1.19129 1.30449,0.007 1.43599,0.2536 1.35104,2.53246 l -0.0781,2.0937 -0.99219,0.0821 -0.99218,0.0821 v 2.447 c 0,2.73058 0.22885,3.26395 1.4552,3.39158 0.79319,0.0825 0.79381,0.084 0.87153,2.00296 0.0752,1.85704 0.055,1.92901 -0.61253,2.18281 -0.76825,0.29209 -2.16322,0.29786 -3.56629,0.0147 z m 51.46146,0.10878 c -0.14552,-0.0534 -0.75755,-0.2237 -1.36006,-0.37838 -0.98767,-0.25354 -1.11225,-0.37864 -1.26582,-1.27102 -0.0937,-0.54439 -0.23541,-1.31793 -0.31495,-1.71898 -0.13777,-0.69469 -0.11151,-0.71659 0.55544,-0.46302 0.85248,0.32412 3.57181,0.34455 4.06735,0.0306 0.5341,-0.33842 0.13656,-1.24637 -0.69857,-1.59545 -1.22494,-0.51204 -3.21806,-2.48826 -3.4996,-3.46994 -1.19077,-4.15198 1.83855,-6.2976 8.94066,-6.33251 1.8961,-0.009 1.9506,0.0497 2.00616,2.1726 l 0.0361,1.37773 -1.58625,0.22659 c -2.74105,0.39155 -3.03902,1.27406 -0.80081,2.37178 2.03433,0.99773 3.04852,2.44373 3.04852,4.34647 0,1.35616 -0.065,1.49313 -1.29042,2.71853 -0.93376,0.93376 -1.6783,1.40561 -2.69385,1.70719 -1.24222,0.3689 -4.42734,0.54095 -5.14386,0.27785 z M 210.00412,37.7315 c -0.32572,-0.52046 -0.41275,-14.18871 -0.0924,-14.50908 0.34408,-0.34408 4.70844,-0.60264 5.75185,-0.34076 l 0.71587,0.17968 -0.17028,7.00558 c -0.0993,4.08372 -0.28727,7.22418 -0.45079,7.52971 -0.25415,0.4749 -0.52934,0.51908 -2.92928,0.4703 -1.52643,-0.031 -2.72344,-0.17316 -2.825,-0.33543 z m 26.94678,0.16319 c -0.71891,-0.14268 -0.95225,-0.34544 -1.12081,-0.97394 -0.36565,-1.36337 -0.57988,-12.34671 -0.25675,-13.16302 l 0.28802,-0.72761 h 2.76303 c 3.21772,0 3.60007,0.10136 3.60007,0.95435 0,0.77096 0.32537,0.79844 1.26748,0.10706 0.84867,-0.62281 3.25811,-1.12756 4.2496,-0.89025 1.4413,0.34497 2.20463,0.93022 2.71339,2.08037 0.46255,1.04566 0.5044,1.70469 0.43984,6.92652 l -0.0713,5.77091 h -2.73334 c -3.71209,0 -3.56337,0.25469 -3.37006,-5.77122 0.1626,-5.06849 0.0423,-5.73815 -1.03077,-5.73815 -1.36573,0 -1.46479,0.40283 -1.46479,5.95641 0,2.81867 -0.10874,5.19206 -0.24164,5.2742 -0.39901,0.2466 -4.0568,0.38789 -5.03192,0.19437 z m -26.34415,-17.21288 -0.79375,-0.16904 -0.0768,-2.18091 -0.0768,-2.1809 h 0.68331 c 0.63449,0 4.17273,0.64867 5.22507,0.95792 0.37751,0.11094 0.46302,0.44359 0.46302,1.80118 v 1.66511 l -1.38907,0.16684 c -1.62475,0.19516 -2.92706,0.17573 -4.03489,-0.0602 z"
         id="path836" /></g><path
       style="color:#000000;fill:#dc3545;fill-opacity:1;stroke-width:4.31289;stroke-linecap:square;stroke-linejoin:bevel;-inkscape-stroke:none"
       d="m 281.57933,28.468716 -8.47188,0.620733 8.47188,0.65725 h 0.97077 98.26372 0.97076 l 8.62421,-0.718039 -8.62421,-0.559944 h -0.97076 -98.26372 z"
       id="path3" /><path
       style="color:#000000;fill:#dc3545;fill-opacity:1;stroke-width:4.31289;stroke-linecap:square;stroke-linejoin:bevel;-inkscape-stroke:none"
       d="m 14.938093,28.468716 -8.4718805,0.620733 8.4718805,0.65725 h 0.97077 98.263727 0.97076 l 8.62421,-0.718039 -8.62421,-0.559944 h -0.97076 -98.263727 z"
       id="path4" /></g></svg>
